<svg xmlns="http://www.w3.org/2000/svg" data-name="Camada 1" viewBox="0 0 100 125" x="0px" y="0px">
<title>Value</title>
<path d="M32.5,0a32.5,32.5,0,0,0,0,65c.87,0,1.74-.03,2.6-.1A31.97089,31.97089,0,0,0,40.22,64.07,32.61407,32.61407,0,0,0,64.07,40.22a31.97767,31.97767,0,0,0,.83-5.12c.07-.86.1-1.73.1-2.6A32.53752,32.53752,0,0,0,32.5,0ZM59.78,35.93A26.104,26.104,0,0,1,58.47,41.53,27.58443,27.58443,0,0,1,41.53,58.47,27.75778,27.75778,0,0,1,32.5,60,27.5,27.5,0,1,1,60,32.5,25.89763,25.89763,0,0,1,59.78,35.93Z"/>
<path d="M100,67.5a32.50051,32.50051,0,0,1-64.97,1.42l.39-.03a37.48314,37.48314,0,0,0,4.6-.67,27.49463,27.49463,0,1,0,28.19-28.2,35.42648,35.42648,0,0,0,.68-4.6c.01-.13.02-.26.02-.39A32.538,32.538,0,0,1,100,67.5Z"/>
<polygon points="13.997 96 10.461 92.465 19.693 83.232 10.284 73.822 13.819 70.287 26.765 83.232 13.997 96"/>
<rect x="4" y="80.89355" width="5.0625" height="4.5"/>
<polygon points="86.003 29.713 89.539 26.178 80.307 16.945 89.716 7.535 86.181 4 73.235 16.945 86.003 29.713"/>
<rect x="90.9375" y="14.60645" width="5.0625" height="4.5" transform="translate(186.9375 33.71289) rotate(180)"/>
<polygon points="30.01 19.524 30.01 22.769 25.372 22.769 25.372 34.976 34.622 34.976 34.622 37.229 25.39 37.239 25.396 42.239 30.01 42.234 30.01 45.476 35.01 45.476 35.01 42.228 39.622 42.223 39.622 29.976 30.372 29.976 30.372 27.769 39.628 27.769 39.628 22.769 35.01 22.769 35.01 19.524 30.01 19.524"/>
<circle cx="67.51501" cy="67.51498" r="4.5"/>
<text x="0" y="115" fill="#000000" font-size="5px" font-weight="bold" font-family="'Helvetica Neue', Helvetica, Arial-Unicode, Arial, Sans-serif">Created by Luiz Carvalho</text>
<text x="0" y="120" fill="#000000" font-size="5px" font-weight="bold" font-family="'Helvetica Neue', Helvetica, Arial-Unicode, Arial, Sans-serif">from the Noun Project</text>
</svg>