<svg xmlns:dc="http://purl.org/dc/elements/1.1/" xmlns:cc="http://creativecommons.org/ns#" xmlns:rdf="http://www.w3.org/1999/02/22-rdf-syntax-ns#" xmlns:svg="http://www.w3.org/2000/svg" xmlns="http://www.w3.org/2000/svg" xmlns:sodipodi="http://sodipodi.sourceforge.net/DTD/sodipodi-0.dtd" xmlns:inkscape="http://www.inkscape.org/namespaces/inkscape" viewBox="0 0 16.933333 21.1666675" version="1.1" x="0px" y="0px"><g transform="translate(0,-280.06665)">
    <path style="color:#000000;font-style:normal;font-variant:normal;font-weight:normal;font-stretch:normal;font-size:medium;line-height:normal;font-family:sans-serif;font-variant-ligatures:normal;font-variant-position:normal;font-variant-caps:normal;font-variant-numeric:normal;font-variant-alternates:normal;font-feature-settings:normal;text-indent:0;text-align:start;text-decoration:none;text-decoration-line:none;text-decoration-style:solid;text-decoration-color:#000000;letter-spacing:normal;word-spacing:normal;text-transform:none;writing-mode:lr-tb;direction:ltr;text-orientation:mixed;dominant-baseline:auto;baseline-shift:baseline;text-anchor:start;white-space:normal;shape-padding:0;clip-rule:nonzero;display:inline;overflow:visible;visibility:visible;opacity:1;isolation:auto;mix-blend-mode:normal;color-interpolation:sRGB;color-interpolation-filters:linearRGB;solid-color:#000000;solid-opacity:1;vector-effect:none;fill:#000000;fill-opacity:1;fill-rule:nonzero;stroke:none;stroke-width:1.30390477;stroke-linecap:square;stroke-linejoin:round;stroke-miterlimit:4;stroke-dasharray:none;stroke-dashoffset:0;stroke-opacity:1;color-rendering:auto;image-rendering:auto;shape-rendering:auto;text-rendering:auto;enable-background:accumulate" d="m 7.8148962,282.31612 v 0.65159 1.18821 h -0.745452 c -1.686798,0 -2.74715,1.2577 -2.74715,2.51504 0,1.25733 1.060352,2.51468 2.74715,2.51468 h 0.745452 v 2.42153 h -2.608537 -0.651952 v 1.30354 h 0.651952 2.608537 v 1.18821 0.65159 h 1.303542 v -0.65159 -1.18821 h 0.745088 c 1.6867968,0 2.7475128,-1.25769 2.7475128,-2.51504 0,-1.25733 -1.060716,-2.51467 -2.7475128,-2.51467 h -0.745088 v -2.42153 h 2.6081718 0.651953 v -1.30355 H 11.72661 9.1184382 v -1.18821 -0.65159 z m -0.745452,3.14335 h 0.745452 v 2.42153 h -0.745452 c -1.107284,0 -1.443609,-0.60466 -1.443609,-1.21004 0,-0.60539 0.336325,-1.21149 1.443609,-1.21149 z m 2.048994,3.72617 h 0.745088 c 1.1072838,0 1.4439718,0.60465 1.4439718,1.21003 0,0.60539 -0.336688,1.2115 -1.4439718,1.2115 h -0.745088 z"/>
    </g>
    <text x="0" y="31.933334" fill="#000000" font-size="5px" font-weight="bold" font-family="'Helvetica Neue', Helvetica, Arial-Unicode, Arial, Sans-serif">Created by achmad</text>
    <text x="0" y="36.933334" fill="#000000" font-size="5px" font-weight="bold" font-family="'Helvetica Neue', Helvetica, Arial-Unicode, Arial, Sans-serif">from the Noun Project</text>
</svg>