<svg width="36" height="8" viewBox="0 0 36 8" fill="none" xmlns="http://www.w3.org/2000/svg">
<path d="M21.2354 2.47876V7.91322H19.6598V7.1195C19.499 7.39522 19.2655 7.62143 18.9848 7.77342C18.6943 7.92643 18.3699 8.00389 18.0416 7.99867C17.3626 7.99867 16.8552 7.8093 16.5196 7.43055C16.184 7.05181 16.0161 6.47976 16.0159 5.71441V2.47876H17.634V5.74766C17.634 6.40504 17.9164 6.73373 18.481 6.73373C18.8169 6.73373 19.0884 6.61944 19.2955 6.39086C19.5026 6.16227 19.6063 5.86219 19.6065 5.4906V2.47876H21.2354Z" fill="#FECB11"/>
<path d="M27.4154 0V7.91284H25.8187V7.10983C25.6533 7.3896 25.4115 7.61644 25.1218 7.76375C24.8068 7.92438 24.4572 8.0054 24.1036 7.99972C23.6625 8.0065 23.2295 7.88138 22.8601 7.6404C22.4959 7.40205 22.2119 7.06621 22.0081 6.63288C21.8043 6.19956 21.7025 5.70474 21.7028 5.14842C21.7028 4.59092 21.8045 4.09967 22.0081 3.67469C22.2116 3.2497 22.4936 2.92066 22.854 2.68755C23.2146 2.45563 23.6309 2.33955 24.1029 2.33931C24.449 2.33488 24.7911 2.41372 25.1004 2.56921C25.3882 2.7118 25.6298 2.93293 25.7972 3.20704V0H27.4154ZM25.4969 6.3533C25.7114 6.07824 25.8187 5.68341 25.8187 5.1688C25.8187 4.66135 25.7096 4.27021 25.4915 3.99539C25.2734 3.72057 24.968 3.58292 24.5752 3.58244C24.1747 3.58244 23.8639 3.7183 23.6427 3.99003C23.4215 4.26175 23.3107 4.64752 23.3102 5.14735C23.3102 5.66171 23.4211 6.06012 23.6427 6.34257C23.8644 6.62502 24.1752 6.76612 24.5752 6.76588C24.9754 6.76588 25.2826 6.62836 25.4969 6.3533Z" fill="#FECB11"/>
<path d="M33.5953 2.47878V7.91322H31.9982V7.10985C31.833 7.38962 31.5914 7.61646 31.3017 7.76377C30.9867 7.9244 30.6371 8.00542 30.2835 7.99974C29.8118 7.99974 29.3955 7.88533 29.0346 7.65652C28.6738 7.4277 28.3916 7.1008 28.188 6.67581C27.9842 6.25083 27.8825 5.75958 27.8827 5.20208C27.8829 4.64457 27.9847 4.14796 28.188 3.71225C28.3918 3.2763 28.6758 2.93868 29.04 2.69937C29.4097 2.45919 29.8427 2.33471 30.2835 2.34184C30.6383 2.33609 30.9888 2.42087 31.3017 2.58818C31.5903 2.74187 31.8312 2.97176 31.9982 3.25283V2.47878H33.5953ZM31.6768 6.35904C31.8913 6.0878 31.9986 5.69451 31.9986 5.1792C31.9986 4.66388 31.8913 4.26916 31.6768 3.99506C31.4623 3.71976 31.155 3.58211 30.7551 3.58211C30.3551 3.58211 30.0443 3.72512 29.8226 4.01115C29.601 4.29717 29.4901 4.69367 29.4901 5.20065C29.4901 5.70762 29.5992 6.0953 29.8173 6.36369C30.0349 6.6316 30.3475 6.76555 30.7551 6.76555C31.1553 6.76579 31.4625 6.63029 31.6768 6.35904Z" fill="#FECB11"/>
<path d="M15.6876 7.98933H13.6793L11.5202 5.52524V7.98933H9.87988V0H11.5202V4.85238L13.5817 2.49769H15.5482L13.2142 5.13518L15.6876 7.98933Z" fill="#FECB11"/>
<path d="M5.38939 7.99219L2.24421 4.37186L3.96213 7.99219H2.77121L1.01932 4.30107L1.7476 7.99219H1.0161L0.287096 4.29535V7.99219H0V0H0.287096V3.98751L1.02611 0H1.75547L1.01324 4.00468L2.79945 0H3.97715L2.19809 3.99002L5.42872 0H7.27464L3.93282 4.12767L7.29037 7.99219H5.38939Z" fill="#FECB11"/>
<path d="M34.9528 7.90429C35.4429 7.90429 35.8402 7.507 35.8402 7.0169C35.8402 6.52681 35.4429 6.12952 34.9528 6.12952C34.4627 6.12952 34.0654 6.52681 34.0654 7.0169C34.0654 7.507 34.4627 7.90429 34.9528 7.90429Z" fill="#FECB11"/>
</svg>
