<svg width="93" height="20" viewBox="0 0 93 20" fill="none" xmlns="http://www.w3.org/2000/svg">
<path d="M29.4449 18.7105V6.10381H31.3206L31.4993 7.1214H31.5886C32.1245 6.4244 33.0352 5.92517 34.3032 5.92517C36.6239 5.92517 38.4821 7.81841 38.4821 10.6208C38.4821 13.4232 36.6255 15.3164 34.3032 15.3164C33.0528 15.3164 32.1787 14.798 31.7146 14.2095H31.6253V18.7089H29.4465L29.4449 18.7105ZM36.3017 10.6224C36.3017 8.97955 35.2475 7.94441 33.9619 7.94441C32.6764 7.94441 31.6221 8.97955 31.6221 10.6224C31.6221 12.2652 32.6764 13.3003 33.9619 13.3003C35.2475 13.3003 36.3017 12.2652 36.3017 10.6224Z" fill="white"/>
<path d="M39.5873 10.6226C39.5873 7.89042 41.5507 5.927 44.176 5.927C46.8014 5.927 48.7648 7.89042 48.7648 10.6226C48.7648 13.3548 46.8014 15.3182 44.176 15.3182C41.5507 15.3182 39.5873 13.3357 39.5873 10.6226ZM46.5685 10.6226C46.5685 9.01487 45.4967 7.94465 44.176 7.94465C42.8554 7.94465 41.766 9.01647 41.766 10.6226C41.766 12.2288 42.8554 13.283 44.176 13.283C45.4967 13.283 46.5685 12.2303 46.5685 10.6226Z" fill="white"/>
<path d="M50.3436 15.1393V2.64111H52.5224V15.1409H50.3436V15.1393Z" fill="white"/>
<path d="M60.6107 6.10413H62.9314L59.003 17.0855C58.6106 18.1749 58.0747 18.7108 56.6632 18.7108H54.5562V16.6932H56.3426C56.6647 16.6932 56.8418 16.5321 56.9502 16.2641L57.164 15.6756L53.486 6.10413H55.8066L58.1465 12.3724H58.5038L60.6107 6.10413Z" fill="white"/>
<path d="M63.3477 15.5859H65.5615C65.6508 16.1745 66.2394 16.9784 67.6334 16.9784C68.9365 16.9784 69.7946 16.1569 69.7946 14.9065V13.6385H69.7052C69.2236 14.1568 68.3304 14.621 67.1868 14.621C64.8661 14.621 63.0797 12.8346 63.0797 10.2635C63.0797 7.6924 64.8661 5.92517 67.1868 5.92517C68.383 5.92517 69.2586 6.40685 69.8121 7.08631H69.9014L70.0801 6.10381H71.9733V14.9065C71.9733 17.2989 70.3656 18.8891 67.6334 18.8891C64.5806 18.8891 63.4019 16.889 63.3477 15.5859ZM69.7946 10.2651C69.7946 8.85514 68.7945 7.87264 67.5265 7.87264C66.2585 7.87264 65.276 8.85514 65.276 10.2651C65.276 11.6751 66.276 12.6751 67.5265 12.6751C68.777 12.6751 69.7946 11.6926 69.7946 10.2651Z" fill="white"/>
<path d="M73.4868 10.6226C73.4868 7.89042 75.4502 5.927 78.0756 5.927C80.7009 5.927 82.6643 7.89042 82.6643 10.6226C82.6643 13.3548 80.7009 15.3182 78.0756 15.3182C75.4502 15.3182 73.4868 13.3357 73.4868 10.6226ZM80.468 10.6226C80.468 9.01487 79.3962 7.94465 78.0756 7.94465C76.7549 7.94465 75.6656 9.01647 75.6656 10.6226C75.6656 12.2288 76.7549 13.283 78.0756 13.283C79.3962 13.283 80.468 12.2303 80.468 10.6226Z" fill="white"/>
<path d="M84.1813 15.1393V6.10381H86.0554L86.234 6.96031H86.3233C86.6806 6.5504 87.5738 5.92517 88.9295 5.92517C91.0014 5.92517 92.5007 7.42445 92.5007 9.71005V15.1377H90.3219V9.99555C90.3219 8.83441 89.5005 7.99545 88.3761 7.99545C87.2516 7.99545 86.3584 8.87109 86.3584 9.99555V15.1377H84.1797L84.1813 15.1393Z" fill="white"/>
<path d="M16.7648 14.085L22.1207 10.9924C22.4046 10.8281 22.5801 10.5235 22.5801 10.1965V4.01117C22.5801 3.6842 22.4046 3.37956 22.1207 3.21527L16.7648 0.122614C16.4809 -0.041668 16.1284 -0.040073 15.8461 0.122614L10.4902 3.21527C10.2062 3.37956 10.0308 3.6842 10.0308 4.01117V15.0643L6.27463 17.2319L2.51847 15.0643V10.7276L6.27463 8.56004L8.75163 9.99073V7.08149L6.73399 5.91557C6.59522 5.83582 6.43573 5.79275 6.27463 5.79275C6.11354 5.79275 5.95404 5.83582 5.81528 5.91557L0.459353 9.00822C0.175447 9.17251 0 9.47715 0 9.80412V15.9894C0 16.3164 0.175447 16.621 0.459353 16.7853L5.81528 19.878C6.09919 20.0407 6.45008 20.0407 6.73399 19.878L12.0899 16.7853C12.3738 16.621 12.5493 16.3164 12.5493 15.9894V4.93466L12.6163 4.89638L16.3038 2.76708L20.06 4.93466V9.27139L16.3038 11.439L13.83 10.0115V12.9207L15.8445 14.0834C16.1284 14.2461 16.4809 14.2461 16.7632 14.0834L16.7648 14.085Z" fill="white"/>
</svg>
