<svg width="89" height="20" viewBox="0 0 89 20" fill="none" xmlns="http://www.w3.org/2000/svg">
<path d="M85.8823 0H2.19412C1.6122 0 1.05412 0.231165 0.642642 0.642642C0.231165 1.05412 0 1.6122 0 2.19412L0 17.8059C0 18.3878 0.231165 18.9459 0.642642 19.3574C1.05412 19.7688 1.6122 20 2.19412 20H85.8823C86.5064 20 87.1049 19.7521 87.5461 19.3108C87.9874 18.8696 88.2353 18.2711 88.2353 17.6471V2.35294C88.2353 1.7289 87.9874 1.13042 87.5461 0.689161C87.1049 0.247899 86.5064 0 85.8823 0ZM87.6471 17.6471C87.6471 18.1151 87.4611 18.5639 87.1302 18.8949C86.7992 19.2258 86.3504 19.4118 85.8823 19.4118H2.19412C1.76869 19.4102 1.36113 19.2405 1.0603 18.9397C0.759473 18.6389 0.589785 18.2313 0.588235 17.8059V2.19412C0.589785 1.76869 0.759473 1.36113 1.0603 1.0603C1.36113 0.759474 1.76869 0.589785 2.19412 0.588235H85.8823C86.3504 0.588235 86.7992 0.774159 87.1302 1.10511C87.4611 1.43605 87.6471 1.88491 87.6471 2.35294V17.6471Z" fill="#635BFF"/>
<path d="M10.0411 6.61182H7.51172V12.9412H8.64113V10.4942H10.0411C11.4529 10.4942 12.3352 9.81182 12.3352 8.55299C12.3352 7.29417 11.4529 6.61182 10.0411 6.61182ZM9.98231 9.55299H8.64113V7.61182H9.99995C10.8117 7.61182 11.2411 7.95888 11.2411 8.5824C11.2411 9.20593 10.7941 9.52358 9.99995 9.52358L9.98231 9.55299Z" fill="#635BFF"/>
<path d="M14.7647 8.23526C14.4555 8.23168 14.1489 8.29283 13.8647 8.41476C13.5805 8.5367 13.3249 8.71673 13.1144 8.9433C12.9039 9.16987 12.7431 9.43797 12.6424 9.73036C12.5417 10.0228 12.5032 10.333 12.5295 10.6411C12.5019 10.951 12.5391 11.2632 12.6388 11.5578C12.7384 11.8525 12.8983 12.1232 13.1083 12.3527C13.3183 12.5822 13.5737 12.7655 13.8584 12.8909C14.1431 13.0162 14.4507 13.081 14.7618 13.081C15.0729 13.081 15.3805 13.0162 15.6652 12.8909C15.9499 12.7655 16.2053 12.5822 16.4153 12.3527C16.6253 12.1232 16.7852 11.8525 16.8849 11.5578C16.9845 11.2632 17.0217 10.951 16.9942 10.6411C17.0213 10.3333 16.9836 10.0232 16.8836 9.7308C16.7835 9.4384 16.6233 9.17023 16.4133 8.94355C16.2032 8.71687 15.948 8.53673 15.6641 8.41473C15.3801 8.29274 15.0738 8.2316 14.7647 8.23526ZM14.7647 12.1588C14.0471 12.1588 13.5883 11.5706 13.5883 10.6411C13.5883 9.71173 14.0353 9.1235 14.7647 9.1235C15.4942 9.1235 15.9412 9.71173 15.9412 10.6411C15.9412 11.5706 15.4765 12.1529 14.7647 12.1529V12.1588Z" fill="#635BFF"/>
<path d="M21.6353 11.3824L20.8059 8.31177H19.9353L19.1118 11.3824L18.2765 8.31177H17.1882L18.5824 12.9471H19.5L20.3471 9.91177L21.1941 12.9471H22.1118L23.5059 8.31177H22.4588L21.6353 11.3824Z" fill="#635BFF"/>
<path d="M25.8823 8.23535C25.5771 8.24102 25.2763 8.30865 24.998 8.43414C24.7197 8.55963 24.4699 8.74036 24.2636 8.96535C24.0573 9.19035 23.8989 9.45492 23.7979 9.74301C23.697 10.0311 23.6557 10.3367 23.6764 10.6412C23.6519 10.9505 23.6921 11.2615 23.7946 11.5543C23.897 11.8471 24.0595 12.1153 24.2715 12.3418C24.4836 12.5682 24.7406 12.7479 25.026 12.8694C25.3115 12.9908 25.6192 13.0514 25.9294 13.0471C26.3559 13.0701 26.7788 12.9587 27.1386 12.7287C27.4985 12.4986 27.7771 12.1615 27.9353 11.7648L27.0588 11.4001C26.99 11.6274 26.846 11.8245 26.6504 11.9592C26.4548 12.0939 26.2192 12.1581 25.9823 12.1412C25.8136 12.1453 25.6458 12.115 25.4891 12.0523C25.3324 11.9896 25.1901 11.8957 25.0708 11.7763C24.9514 11.657 24.8575 11.5147 24.7948 11.358C24.7321 11.2013 24.7018 11.0335 24.7059 10.8648H27.9529V10.5118C27.9647 9.24123 27.247 8.23535 25.8823 8.23535ZM24.747 10.0765C24.7883 9.80641 24.926 9.56041 25.1348 9.3841C25.3435 9.2078 25.6091 9.11315 25.8823 9.1177C26.0121 9.10673 26.1428 9.12353 26.2656 9.16697C26.3884 9.21041 26.5006 9.2795 26.5946 9.36964C26.6887 9.45979 26.7624 9.56893 26.811 9.68979C26.8596 9.81066 26.8819 9.94049 26.8764 10.0706L24.747 10.0765Z" fill="#635BFF"/>
<path d="M29.8176 8.99999V8.31176H28.7588V12.9412H29.8176V10.5118C29.8082 10.3548 29.8321 10.1976 29.8879 10.0506C29.9437 9.9036 30.0301 9.7701 30.1412 9.65891C30.2524 9.54773 30.3859 9.46139 30.5329 9.4056C30.68 9.34982 30.8371 9.32585 30.9941 9.33529C31.1233 9.32615 31.2531 9.32615 31.3823 9.33529V8.27646C31.3 8.27646 31.2058 8.27646 31.0823 8.27646C30.8243 8.2631 30.5679 8.32419 30.3437 8.45248C30.1195 8.58076 29.9368 8.77082 29.8176 8.99999Z" fill="#635BFF"/>
<path d="M33.8118 8.23535C33.5066 8.24102 33.2057 8.30865 32.9274 8.43414C32.6492 8.55963 32.3993 8.74036 32.193 8.96535C31.9867 9.19035 31.8283 9.45492 31.7274 9.74301C31.6264 10.0311 31.5851 10.3367 31.6059 10.6412C31.5813 10.9505 31.6215 11.2615 31.724 11.5543C31.8265 11.8471 31.9889 12.1153 32.201 12.3418C32.413 12.5682 32.67 12.7479 32.9555 12.8694C33.241 12.9908 33.5486 13.0514 33.8588 13.0471C34.2814 13.0651 34.6991 12.9514 35.0542 12.7216C35.4093 12.4919 35.6843 12.1575 35.8412 11.7648L34.9353 11.4177C34.8665 11.645 34.7225 11.8422 34.5269 11.9769C34.3313 12.1115 34.0957 12.1757 33.8588 12.1589C33.6936 12.1574 33.5302 12.123 33.3783 12.0578C33.2265 11.9926 33.0891 11.8979 32.9741 11.7791C32.8592 11.6603 32.769 11.5199 32.7088 11.366C32.6486 11.212 32.6196 11.0476 32.6235 10.8824H35.8824V10.5295C35.8824 9.24123 35.1529 8.23535 33.8118 8.23535ZM32.6765 10.0765C32.7189 9.80851 32.8563 9.5647 33.0637 9.38971C33.2711 9.21473 33.5346 9.12026 33.8059 9.12359C33.9357 9.11262 34.0664 9.12941 34.1892 9.17285C34.312 9.21629 34.4241 9.28538 34.5182 9.37553C34.6122 9.46567 34.686 9.57481 34.7346 9.69568C34.7832 9.81654 34.8055 9.94637 34.8 10.0765H32.6765Z" fill="#635BFF"/>
<path d="M39.7412 8.82358C39.578 8.63204 39.3737 8.4797 39.1436 8.37787C38.9134 8.27604 38.6633 8.22733 38.4118 8.23535C37.1118 8.23535 36.3706 9.32358 36.3706 10.6412C36.3706 11.9589 37.1118 13.0471 38.4118 13.0471C38.6635 13.0564 38.914 13.0083 39.1444 12.9064C39.3747 12.8045 39.5788 12.6514 39.7412 12.4589V12.9412H40.8V6.61182H39.7412V8.82358ZM39.7412 10.7942C39.7649 10.9619 39.7521 11.1328 39.7037 11.2951C39.6553 11.4574 39.5724 11.6074 39.4607 11.7347C39.349 11.8621 39.2111 11.9638 39.0565 12.0329C38.9019 12.1021 38.7341 12.137 38.5647 12.1353C37.7941 12.1353 37.3883 11.5471 37.3883 10.653C37.3883 9.75888 37.8 9.17064 38.5647 9.17064C39.2177 9.17064 39.7412 9.64711 39.7412 10.5177V10.7942Z" fill="#635BFF"/>
<path d="M46.6529 8.23535C46.3966 8.22413 46.1412 8.27125 45.9058 8.37315C45.6704 8.47505 45.4612 8.62906 45.2941 8.82358V6.61182H44.2352V12.9412H45.2941V12.453C45.4582 12.645 45.6634 12.7976 45.8946 12.8994C46.1258 13.0012 46.3769 13.0497 46.6293 13.0412C47.9235 13.0412 48.6646 11.9471 48.6646 10.6353C48.6646 9.32358 47.947 8.23535 46.6529 8.23535ZM46.4705 12.1177C46.3011 12.1194 46.1334 12.0844 45.9787 12.0153C45.8241 11.9462 45.6862 11.8444 45.5745 11.7171C45.4628 11.5898 45.3799 11.4398 45.3315 11.2775C45.2831 11.1151 45.2703 10.9442 45.2941 10.7765V10.5001C45.2941 9.62946 45.7882 9.15299 46.4705 9.15299C47.2352 9.15299 47.647 9.74123 47.647 10.6353C47.647 11.5295 47.2058 12.1177 46.4705 12.1177Z" fill="#635BFF"/>
<path d="M51.1353 11.5647L50 8.31177H48.8823L50.5882 12.7765L50.4117 13.2118C50.3817 13.3609 50.2951 13.4926 50.1701 13.5793C50.0451 13.6659 49.8913 13.7008 49.7411 13.6765C49.6237 13.6851 49.5057 13.6851 49.3882 13.6765V14.5647C49.5303 14.5859 49.6739 14.5957 49.8176 14.5941C50.1849 14.6208 50.5498 14.5176 50.8487 14.3026C51.1476 14.0876 51.3615 13.7743 51.4529 13.4176L53.3588 8.34706H52.247L51.1353 11.5647Z" fill="#635BFF"/>
<path d="M73.5294 7.3118C73.2971 7.31045 73.0669 7.35497 72.8519 7.44279C72.6369 7.53061 72.4413 7.66001 72.2764 7.82356L72.1941 7.41768H70.7882V15.0177L72.3882 14.6706V12.8294C72.7064 13.0959 73.1084 13.2417 73.5235 13.2412C74.6647 13.2412 75.7117 12.3059 75.7117 10.2353C75.7117 8.34121 74.6529 7.3118 73.5294 7.3118ZM73.147 11.8C73.0067 11.8081 72.8663 11.7849 72.7361 11.732C72.6059 11.6791 72.489 11.5978 72.3941 11.4942V9.0765C72.4894 8.96904 72.6076 8.88423 72.7399 8.82826C72.8722 8.77228 73.0153 8.74656 73.1588 8.75297C73.747 8.75297 74.147 9.41768 74.147 10.2706C74.147 11.1236 73.7412 11.8 73.147 11.8Z" fill="#635BFF"/>
<path d="M78.6647 7.31177C77.1235 7.31177 76.1882 8.64118 76.1882 10.3177C76.1882 12.3 77.2941 13.3059 78.8706 13.3059C79.4859 13.3159 80.0934 13.1681 80.6353 12.8765V11.5529C80.1432 11.8012 79.5982 11.9264 79.0471 11.9176C78.4118 11.9176 77.8706 11.6882 77.7882 10.9176H80.9529C80.9529 10.8294 80.9529 10.4824 80.9529 10.3294C81.0059 8.64118 80.2059 7.31177 78.6647 7.31177ZM77.8 9.70588C77.8 8.96471 78.2529 8.65294 78.6529 8.65294C79.0529 8.65294 79.4765 8.96471 79.4765 9.70588H77.8Z" fill="#635BFF"/>
<path d="M66.4706 7.85877L66.3706 7.37642H65.0059V13.0882H66.5823V9.21759C66.7247 9.04474 66.9164 8.91945 67.1319 8.85848C67.3474 8.79752 67.5764 8.80377 67.7882 8.87642V7.37642C67.5476 7.28214 67.2807 7.27915 67.038 7.36799C66.7953 7.45684 66.5935 7.6314 66.4706 7.85877Z" fill="#635BFF"/>
<path d="M58.5058 9.09412C58.5058 8.8353 58.7176 8.7353 59.0529 8.7353C59.6086 8.74726 60.1533 8.89251 60.6411 9.15882V7.61177C60.1367 7.40782 59.5969 7.30586 59.0529 7.31177C57.7529 7.31177 56.8882 8.00588 56.8882 9.17059C56.8882 10.9941 59.3235 10.7 59.3235 11.4824C59.3235 11.7882 59.0647 11.8882 58.7352 11.8882C58.1137 11.8519 57.5094 11.6706 56.9705 11.3588V12.9412C57.5259 13.1889 58.1271 13.3171 58.7352 13.3176C60.0647 13.3176 60.9823 12.6412 60.9823 11.4588C60.9529 9.48235 58.5058 9.8353 58.5058 9.09412Z" fill="#635BFF"/>
<path d="M63.1059 6.02356L61.5471 6.36474V11.6177C61.5391 11.8391 61.5762 12.0597 61.6564 12.2663C61.7365 12.4728 61.8579 12.6608 62.0132 12.8188C62.1684 12.9768 62.3543 13.1015 62.5594 13.1852C62.7644 13.269 62.9844 13.3101 63.2059 13.3059C63.5924 13.3232 63.9774 13.2486 64.3294 13.0883V11.7647C64.1236 11.853 63.1177 12.153 63.1177 11.1765V8.82356H64.3294V7.44709H63.1177L63.1059 6.02356Z" fill="#635BFF"/>
<path d="M68.3823 6.88237L69.9882 6.54708V5.27649L68.3823 5.61178V6.88237Z" fill="#635BFF"/>
<path d="M69.9882 7.4176H68.3823V13.0882H69.9882V7.4176Z" fill="#635BFF"/>
</svg>
