<svg width="148" height="30" viewBox="0 0 148 30" fill="none" xmlns="http://www.w3.org/2000/svg">
<path d="M14.464 30H18.118V12.78L14.086 8.286H5.56L0.1 13.62L3.712 15.132L6.946 11.898H12.532L14.506 14.124L14.464 30ZM1.024 21.642V25.128L5.938 30H10.852V26.388H7.408L4.594 23.616V23.07L7.492 20.298H10.852V16.644H5.938L1.024 21.642ZM28.0425 11.898H29.0085V8.286H26.4885L22.3305 12.78V30H25.9845V14.124L28.0425 11.898ZM40.3065 13.536L34.9725 8.286H32.6205V11.898H33.5445L36.7365 15.132L40.3065 13.536ZM50.1059 11.898H51.0719V8.286H48.5939L44.5199 12.78V25.464L48.5939 30H51.0719V26.388H50.2319C49.5599 25.59 48.8039 24.876 48.1319 24.036V20.298H51.0719V16.644H48.1319V14.166L50.1059 11.898ZM54.6839 16.644V20.298H61.2779V12.78L57.1619 8.286H54.6839V11.898H55.6079L57.6239 14.166V16.644H54.6839ZM55.6079 26.388H54.6839V30H57.2039L61.9919 24.582L58.5899 23.07L55.6079 26.388ZM80.5402 30H84.1942V12.78L80.1622 8.286H71.6362L66.1762 13.62L69.7882 15.132L73.0222 11.898H78.6082L80.5822 14.124L80.5402 30ZM67.1002 21.642V25.128L72.0142 30H76.9282V26.388H73.4842L70.6702 23.616V23.07L73.5682 20.298H76.9282V16.644H72.0142L67.1002 21.642ZM92.0186 0.599998H88.4066V25.464L92.4806 30H95.1266V26.388H94.1186C93.4466 25.59 92.6906 24.876 92.0186 24.036V14.376L94.2446 11.898H95.1266V8.286H92.4386L92.0186 8.79V0.599998ZM98.7386 26.388V30H101.049L105.501 25.464V12.78L101.049 8.286H98.7386V11.898H99.5786L101.931 14.208V24.036L99.5366 26.388H98.7386ZM109.694 25.464L114.23 30H116.456V26.388H115.7L113.306 24.036V14.208L115.658 11.898H116.456V8.286H114.23L109.694 12.78V25.464ZM120.068 26.388V30H122.336L126.788 25.464V12.78L122.336 8.286H120.068V11.898H120.866L123.218 14.208V24.036L120.866 26.388H120.068ZM143.31 30H147.594L134.364 8.286H130.038L143.31 30ZM141.042 12.318L143.184 15.804L147.762 8.286H143.52L141.042 12.318ZM136.758 26.388L134.616 22.818L130.248 30H134.574L136.758 26.388Z" fill="black"/>
</svg>
