<svg xmlns="http://www.w3.org/2000/svg" xmlns:xlink="http://www.w3.org/1999/xlink" version="1.1" x="0px" y="0px" viewBox="0 0 100 125" style="enable-background:new 0 0 100 100;" xml:space="preserve"><g>
<path fill="#FFF606" d="M46.3,20h3.5c1.6,0,3.2,0,4.8,0.1c3.4,0.1,6.7,0.2,10.1,0.5c0.9,0.1,1.8,0.2,2.7,0.3c3.1,0.3,6.1,1.6,8.5,3.7   c2.7,2.4,4.4,5.8,4.6,9.4c0.1,0.8,0.1,1.6,0.3,2.4c0.4,2.9,0.5,5.8,0.6,8.7c-2.1-0.4-4.3-0.3-6.5,0c-0.1-1.9-0.2-3.9-0.3-5.8   c-0.1-1.1-0.2-2.3-0.4-3.4c-0.1-1-0.1-2-0.4-3c-0.7-2.6-2.9-4.7-5.5-5.4c-0.9-0.3-1.9-0.3-2.8-0.4c-3-0.4-6.1-0.5-9.1-0.6   c-3.8-0.1-7.5-0.1-11.3-0.1c-3.1,0-6.3,0.1-9.4,0.3c-1.6,0.1-3.1,0.2-4.6,0.4c-0.7,0.1-1.4,0.1-2.1,0.2c-2.2,0.3-4.2,1.5-5.4,3.3   c-0.8,1.1-1.3,2.4-1.4,3.8c-0.1,1-0.3,2.1-0.4,3.1c-0.4,2.8-0.5,5.7-0.5,8.5c0,2.5,0,4.9,0.2,7.4c0.1,1.5,0.2,3.1,0.4,4.6   c0.1,0.8,0.2,1.7,0.3,2.5c0.2,2.2,1.5,4.3,3.3,5.5c1.3,1,3,1.5,4.7,1.5c10,0,19.9,0,29.9,0c0.9,4,3.1,7.7,6.2,10.4   c1.8,1.5,3.9,2.7,6.1,3.5c-0.3,1.2-1.3,2.2-2.5,2.4c-1.1,0.2-2.3-0.2-3-1c-0.4-0.5-0.9-0.9-1.3-1.4c-2.5-2.4-5.6-4.3-8.8-5.5   C51.7,74,46.1,73.7,41,75.3c-2.5,0.7-4.8,1.9-6.9,3.3c-1.8,1.2-3.4,2.6-4.7,4.3c-0.8,0.9-2.1,1.3-3.3,0.9c-1-0.3-1.9-1.1-2.2-2.2   c-0.3-1-0.1-2.2,0.6-3c1.4-1.7,3.1-3.2,4.8-4.6c-1.9-0.1-3.7-0.5-5.4-1.3c-2.4-1.1-4.4-2.9-5.9-5c-1.3-2-2.1-4.3-2.4-6.6   c-0.1-0.8-0.2-1.7-0.3-2.5c-0.2-1.6-0.3-3.2-0.4-4.8c-0.2-2.7-0.2-5.5-0.2-8.2c0-3,0.1-6.1,0.6-9.1c0.1-0.9,0.3-1.9,0.4-2.8   c0.3-3.5,2-6.8,4.6-9.1c2-1.8,4.5-3.1,7.2-3.6c0.8-0.2,1.7-0.2,2.6-0.3c3.1-0.4,6.2-0.6,9.4-0.7C41.6,20,44,20,46.3,20z"/>
<path fill="#FFF606" d="M40.3,38.3c3.7-0.2,7.4-0.2,11.1-0.2c1.9,0,3.8,0.1,5.7,0.3c0.8,0.1,1.5,0.1,2.3,0.3c0.3,1.2,0.4,2.5,0.5,3.8   c0.1,2,0.1,4,0.1,6.1c-0.1,1.4-0.1,2.9-0.4,4.3c0,0.3-0.1,0.5-0.2,0.8c-1.6,0.2-3.2,0.2-4.8,0.2c-3.2,0-6.4,0.1-9.7-0.1   c-0.5,0-0.9-0.1-1.4-0.1c-2.2,1.7-4.4,3.4-6.7,5.1c0-0.4,0-0.9,0-1.3c-0.2-3.4-0.2-6.8-0.2-10.2c0-2.8,0-5.7,0.3-8.5   C38,38.5,39.2,38.4,40.3,38.3z"/>
<path fill="#FFF606" d="M77.4,49.9c2.6-0.2,5.2,0.4,7.4,1.7c2.1,1.1,3.9,2.8,5.1,4.9c1.4,2.3,2.1,5,2,7.7c-0.1,2.5-0.9,5-2.3,7.1   c-1.3,2-3.2,3.6-5.3,4.7c-2.4,1.2-5.1,1.7-7.8,1.4c-2.5-0.3-4.8-1.3-6.8-2.8c-1.3-1-2.4-2.3-3.3-3.7c-1.2-2-1.9-4.4-2-6.7   c-0.1-2.6,0.6-5.2,1.9-7.4c1.2-2.1,3-3.8,5.1-5C73.3,50.7,75.4,50.1,77.4,49.9 M76.9,56.1c0,2,0,4,0,6c-1.9,0-3.8,0-5.7,0   c0,1.1,0,2.2,0,3.3c1.9,0,3.8,0,5.7,0c0,2.1,0,4.3,0,6.4c1.2,0,2.3,0,3.5,0c0-2.1,0-4.3,0-6.4c1.9,0,3.8,0,5.6,0c0-1.1,0-2.2,0-3.3   c-1.9,0-3.8,0-5.6,0c0-2,0-4,0-6C79.2,56.1,78,56.1,76.9,56.1z"/></g><text x="0" y="115" fill="#000000" font-size="5px" font-weight="bold" font-family="'Helvetica Neue', Helvetica, Arial-Unicode, Arial, Sans-serif"></text><text x="0" y="120" fill="#000000" font-size="5px" font-weight="bold" font-family="'Helvetica Neue', Helvetica, Arial-Unicode, Arial, Sans-serif"></text></svg>