<svg width="17" height="20" viewBox="0 0 17 20" fill="none" xmlns="http://www.w3.org/2000/svg">
<path fill-rule="evenodd" clip-rule="evenodd" d="M11.6359 0H15.7305L14.325 1.33703L15.7305 2.67406H11.6359V5.89689H14.3282C14.8541 8.92999 15.3826 11.9648 15.9075 14.9962C16.1963 16.6637 16.4856 18.3319 16.7751 20H12.0084V17.7164H9.61104V15.4328H7.21361V13.1493H4.81629V20H0C0.289383 18.3319 0.578766 16.6637 0.867499 14.9962C1.39238 11.9648 1.92093 8.92999 2.44494 5.89689H4.81629V3.67985H7.21361V5.89689H8.38382H10.4235L11.0788 8.05007V5.89689V0H11.6359ZM7.21361 8.58207H9.61104V10.8657H7.21361V8.58207Z" fill="black"/>
</svg>
