<svg width="14" height="18" viewBox="0 0 14 18" fill="none" xmlns="http://www.w3.org/2000/svg">
<path d="M13.5914 6.8528H7.48097V5.71066H10.8503C10.9074 5.71066 11.0216 5.71066 11.0787 5.65356L13.8198 3.82614C13.934 3.76904 13.9911 3.59772 13.9911 3.4835C13.9911 3.31218 13.934 3.19797 13.8198 3.14086L11.0787 1.31345C11.0216 1.25635 10.9074 1.25635 10.8503 1.25635H7.48097V0.456853C7.48097 0.228427 7.30965 0 7.02412 0C6.79569 0 6.56726 0.17132 6.56726 0.456853V1.19924H0.456853C0.228426 1.19924 0 1.37056 0 1.65609V5.31092C0 5.53934 0.17132 5.76777 0.456853 5.76777H6.56726V6.9099H3.19797C3.14086 6.9099 3.02665 6.9099 2.96954 6.96701L0.228426 8.79442C0.114213 8.85153 0.0571066 9.02285 0.0571066 9.13706C0.0571066 9.30838 0.114213 9.42259 0.228426 9.4797L2.96954 11.3071C3.02665 11.3642 3.14086 11.3642 3.19797 11.3642H6.56726V16.8465H5.02538C4.79696 16.8465 4.56853 17.0178 4.56853 17.3033C4.56853 17.5888 4.73985 17.7602 5.02538 17.7602H8.96574C9.19417 17.7602 9.42259 17.5888 9.42259 17.3033C9.42259 17.0178 9.25127 16.8465 8.96574 16.8465H7.42386V11.3642H13.5343C13.7627 11.3642 13.9911 11.1929 13.9911 10.9074V7.25254C14.0482 7.02412 13.8198 6.8528 13.5914 6.8528Z" fill="white"/>
</svg>
