<svg width="19" height="18" viewBox="0 0 19 18" fill="none" xmlns="http://www.w3.org/2000/svg">
<path d="M15.4878 11.9763L11.0802 11.9763V12.5272C11.0802 13.4455 10.5905 14.3025 9.73342 14.6698C8.87639 15.0983 7.89693 14.9759 7.16233 14.425L2.02014 10.5071C1.95892 10.6295 1.95892 10.8132 1.95892 10.9968C1.95892 11.4866 2.14257 11.9151 2.50987 12.1599L9.67221 17.6694C10.1007 18.0367 10.7129 18.0979 11.2638 17.8531C11.7536 17.6082 12.1209 17.1185 12.1209 16.5063V15.5269C12.1209 15.2208 12.3657 14.9759 12.6718 14.9759L17.4467 14.9759C18.2425 14.9759 18.9159 14.3025 18.9159 13.5067V8.42573C18.9159 7.75235 18.4874 7.2014 17.8752 7.01775V9.52763C17.9364 10.9356 16.8345 11.9763 15.4878 11.9763Z" fill="white"/>
<path d="M7.7745 0.345098L0.612165 5.85459C0.244866 6.16067 0 6.58919 0 7.0177C0 7.50743 0.18365 7.93595 0.612165 8.18082L7.7745 13.6903C8.20302 14.0576 8.81518 14.1188 9.36613 13.874C9.85586 13.6291 10.2232 13.1394 10.2232 12.5272V11.5477C10.2232 11.2416 10.468 10.9968 10.7741 10.9968L15.549 10.9968C16.3448 10.9968 17.0182 10.3234 17.0182 9.52758V4.44661C17.0182 3.65079 16.3448 2.97741 15.549 2.97741L10.7129 2.97741C10.4068 2.97741 10.1619 2.73254 10.1619 2.42646V1.447C10.1619 0.896048 9.85586 0.345098 9.30491 0.100232C8.81518 -0.0834179 8.20302 -0.0222015 7.7745 0.345098Z" fill="white"/>
</svg>
