<svg width="14" height="12" viewBox="0 0 14 12" fill="none" xmlns="http://www.w3.org/2000/svg">
<path d="M13.0306 10.1315L7.67424 0.622828C7.2175 -0.207609 5.97182 -0.207609 5.51505 0.622828L0.158667 10.1315C-0.298067 10.9619 0.283245 12 1.23826 12H11.9095C12.9061 11.9585 13.4874 10.9619 13.0306 10.1315Z" fill="#FF1800"/>
<path d="M5.72266 5.60554L6.05485 7.80624C6.09637 8.05536 6.30397 8.26297 6.59464 8.26297C6.84377 8.26297 7.09292 8.05536 7.13444 7.80624L7.46663 5.60554C7.54966 5.06574 7.13444 4.60901 6.59464 4.60901C6.05482 4.60898 5.68112 5.06574 5.72266 5.60554Z" fill="white"/>
<path d="M6.59462 9.71626C6.86982 9.71626 7.0929 9.49317 7.0929 9.21798C7.0929 8.94278 6.86982 8.7197 6.59462 8.7197C6.31943 8.7197 6.09634 8.94278 6.09634 9.21798C6.09634 9.49317 6.31943 9.71626 6.59462 9.71626Z" fill="white"/>
</svg>
