<svg width="10" height="10" viewBox="0 0 10 10" fill="none" xmlns="http://www.w3.org/2000/svg">
<path d="M6.88884 0.0979846V0.457578C6.88884 0.483565 6.89916 0.508488 6.91754 0.526863C6.93592 0.545238 6.96084 0.555562 6.98682 0.555562H9.05054L6.76173 2.84437C6.74335 2.86275 6.73303 2.88767 6.73303 2.91366C6.73303 2.93964 6.74335 2.96456 6.76173 2.98294L7.01595 3.23717C7.03433 3.25555 7.05925 3.26587 7.08524 3.26587C7.11122 3.26587 7.13614 3.25555 7.15452 3.23717L9.44442 0.947275V3.01316C9.44442 3.03914 9.45474 3.06407 9.47312 3.08244C9.49149 3.10082 9.51642 3.11114 9.5424 3.11114H9.902C9.92798 3.11114 9.95291 3.10082 9.97128 3.08244C9.98966 3.06407 9.99998 3.03914 9.99998 3.01316V0.277781L9.99927 0.097604C9.99918 0.0716832 9.98881 0.0468585 9.97044 0.0285649C9.95208 0.0102715 9.92721 4.76837e-07 9.90129 1.19209e-06H6.98682C6.96084 1.66893e-06 6.93591 0.0103254 6.91754 0.0287006C6.89916 0.047076 6.88884 0.0719984 6.88884 0.0979846Z" fill="white"/>
<path d="M3.11005 9.90202V9.54242C3.11005 9.52956 3.10752 9.51681 3.1026 9.50493C3.09767 9.49304 3.09045 9.48224 3.08136 9.47314C3.07226 9.46404 3.06146 9.45682 3.04957 9.4519C3.03768 9.44697 3.02494 9.44444 3.01207 9.44444H0.947275L3.23717 7.15454C3.25555 7.13617 3.26587 7.11125 3.26587 7.08526C3.26587 7.05927 3.25555 7.03435 3.23717 7.01598L2.98294 6.76175C2.96456 6.74337 2.93964 6.73305 2.91365 6.73305C2.88767 6.73305 2.86275 6.74337 2.84437 6.76175L0.555561 9.05056L0.555561 6.98684C0.555561 6.96086 0.545237 6.93594 0.526862 6.91756C0.508487 6.89918 0.483564 6.88886 0.457577 6.88886H0.0979831C0.0719964 6.88886 0.047074 6.89918 0.0286986 6.91756C0.0103232 6.93594 0 6.96086 0 6.98684L0 9.90202C0 9.928 0.0103232 9.95293 0.0286986 9.9713C0.047074 9.98968 0.0719964 10 0.0979831 10H3.01207C3.02494 10 3.03768 9.99747 3.04957 9.99254C3.06146 9.98762 3.07226 9.9804 3.08136 9.9713C3.09045 9.9622 3.09767 9.9514 3.1026 9.93951C3.10752 9.92763 3.11005 9.91488 3.11005 9.90202Z" fill="white"/>
</svg>
