<svg width="84" height="40" viewBox="0 0 84 40" fill="none" xmlns="http://www.w3.org/2000/svg">
<path d="M4.80469 33.1761H1.8457V36.3158H0.932617V29.2064H5.29785V29.9779H1.8457V32.4095H4.80469V33.1761ZM6.99707 28.8158H9.69727V35.5345H11.4209V36.3158H6.99707V35.5345H8.79395V29.6019H6.99707V28.8158ZM16.333 36.3158C16.2972 36.2474 16.2679 36.1628 16.2451 36.0619C16.2256 35.9577 16.2109 35.8503 16.2012 35.7396C16.11 35.8308 16.0075 35.917 15.8936 35.9984C15.7829 36.0798 15.6592 36.1514 15.5225 36.2132C15.389 36.2751 15.2458 36.3239 15.0928 36.3597C14.9398 36.3955 14.777 36.4134 14.6045 36.4134C14.3245 36.4134 14.0706 36.3728 13.8428 36.2914C13.6182 36.21 13.4261 36.1009 13.2666 35.9642C13.1104 35.8243 12.9883 35.6599 12.9004 35.4711C12.8158 35.279 12.7734 35.0723 12.7734 34.8509C12.7734 34.5612 12.8304 34.3073 12.9443 34.0892C13.0615 33.8711 13.2259 33.6905 13.4375 33.5472C13.6491 33.4007 13.903 33.2917 14.1992 33.2201C14.4987 33.1485 14.8324 33.1127 15.2002 33.1127H16.1865V32.6976C16.1865 32.5381 16.1572 32.3949 16.0986 32.2679C16.04 32.141 15.957 32.0336 15.8496 31.9457C15.7422 31.8545 15.6104 31.7845 15.4541 31.7357C15.3011 31.6869 15.1286 31.6625 14.9365 31.6625C14.7575 31.6625 14.5964 31.6853 14.4531 31.7308C14.3132 31.7764 14.1943 31.8366 14.0967 31.9115C13.999 31.9864 13.9225 32.0759 13.8672 32.18C13.8151 32.281 13.7891 32.3868 13.7891 32.4974H12.8809C12.8841 32.3054 12.9329 32.1166 13.0273 31.931C13.125 31.7455 13.2633 31.5795 13.4424 31.433C13.6247 31.2832 13.8444 31.1628 14.1016 31.0716C14.362 30.9805 14.6566 30.9349 14.9854 30.9349C15.2848 30.9349 15.5632 30.9724 15.8203 31.0472C16.0775 31.1188 16.2988 31.2295 16.4844 31.3793C16.6732 31.5257 16.8213 31.7097 16.9287 31.931C17.0361 32.1524 17.0898 32.4112 17.0898 32.7074V35.1634C17.0898 35.3392 17.1061 35.5264 17.1387 35.725C17.1712 35.9203 17.2168 36.0912 17.2754 36.2377V36.3158H16.333ZM14.7363 35.6273C14.9121 35.6273 15.0765 35.6045 15.2295 35.559C15.3825 35.5134 15.5208 35.4532 15.6445 35.3783C15.7715 35.3034 15.8805 35.2188 15.9717 35.1244C16.0628 35.0267 16.1344 34.9258 16.1865 34.8216V33.7523H15.3467C14.8193 33.7523 14.4092 33.8304 14.1162 33.9867C13.8232 34.1429 13.6768 34.3887 13.6768 34.724C13.6768 34.8542 13.6979 34.9746 13.7402 35.0853C13.7858 35.196 13.8525 35.292 13.9404 35.3734C14.0283 35.4515 14.139 35.5134 14.2725 35.559C14.4059 35.6045 14.5605 35.6273 14.7363 35.6273ZM22.3779 34.9144C22.3779 34.807 22.3568 34.711 22.3145 34.6263C22.2721 34.5384 22.2005 34.4587 22.0996 34.3871C21.9987 34.3155 21.8652 34.2504 21.6992 34.1918C21.5332 34.1299 21.3265 34.0746 21.0791 34.0257C20.7764 33.9639 20.4997 33.889 20.249 33.8011C20.0016 33.7132 19.7884 33.6091 19.6094 33.4886C19.4336 33.3649 19.2969 33.2217 19.1992 33.059C19.1016 32.8929 19.0527 32.7009 19.0527 32.4828C19.0527 32.2679 19.1032 32.0677 19.2041 31.8822C19.305 31.6934 19.4466 31.529 19.6289 31.389C19.8112 31.2491 20.0277 31.1384 20.2783 31.057C20.5322 30.9756 20.8105 30.9349 21.1133 30.9349C21.4388 30.9349 21.7318 30.9772 21.9922 31.0619C22.2526 31.1465 22.474 31.2637 22.6562 31.4134C22.8385 31.5632 22.9785 31.739 23.0762 31.9408C23.1771 32.1394 23.2275 32.3542 23.2275 32.5853H22.3242C22.3242 32.4714 22.2949 32.3607 22.2363 32.2533C22.1777 32.1426 22.0964 32.045 21.9922 31.9603C21.888 31.8757 21.7611 31.8073 21.6113 31.7552C21.4648 31.7032 21.2988 31.6771 21.1133 31.6771C20.9212 31.6771 20.752 31.6983 20.6055 31.7406C20.4622 31.7829 20.3418 31.8399 20.2441 31.9115C20.1497 31.9831 20.0781 32.0661 20.0293 32.1605C19.9805 32.2549 19.9561 32.3526 19.9561 32.4535C19.9561 32.5577 19.9756 32.6504 20.0146 32.7318C20.0537 32.8132 20.1204 32.8864 20.2148 32.9515C20.3125 33.0166 20.4411 33.0752 20.6006 33.1273C20.7633 33.1794 20.9684 33.2299 21.2158 33.2787C21.5413 33.347 21.8327 33.4268 22.0898 33.5179C22.347 33.6058 22.5635 33.7132 22.7393 33.8402C22.915 33.9639 23.0485 34.1088 23.1396 34.2748C23.234 34.4408 23.2812 34.6328 23.2812 34.8509C23.2812 35.0853 23.2275 35.2985 23.1201 35.4906C23.016 35.6827 22.8695 35.847 22.6807 35.9838C22.4919 36.1205 22.2656 36.2263 22.002 36.3011C21.7383 36.376 21.4502 36.4134 21.1377 36.4134C20.7796 36.4134 20.4606 36.3662 20.1807 36.2718C19.9007 36.1742 19.6631 36.0472 19.4678 35.891C19.2757 35.7315 19.1276 35.5476 19.0234 35.3392C18.9225 35.1309 18.8721 34.9144 18.8721 34.6898H19.7754C19.7884 34.8754 19.8372 35.0316 19.9219 35.1586C20.0098 35.2855 20.1172 35.3881 20.2441 35.4662C20.3743 35.5443 20.5176 35.5996 20.6738 35.6322C20.8301 35.6647 20.9847 35.681 21.1377 35.681C21.5186 35.681 21.8197 35.611 22.041 35.4711C22.2624 35.3311 22.3747 35.1455 22.3779 34.9144ZM25.7764 31.8187C25.9652 31.542 26.1979 31.3272 26.4746 31.1742C26.7513 31.0179 27.0622 30.9382 27.4072 30.9349C27.6839 30.9349 27.9346 30.9756 28.1592 31.057C28.387 31.1351 28.5807 31.2588 28.7402 31.4281C28.8997 31.5974 29.0218 31.8122 29.1064 32.0726C29.1943 32.3298 29.2383 32.6358 29.2383 32.9906V36.3158H28.335V32.9808C28.335 32.5479 28.2308 32.2256 28.0225 32.014C27.8174 31.8024 27.5228 31.6983 27.1387 31.7015C26.849 31.7015 26.5853 31.7731 26.3477 31.9164C26.1133 32.0563 25.9229 32.2435 25.7764 32.4779V36.3158H24.873V28.8158H25.7764V31.8187ZM37.876 29.2064L39.0332 32.7611L40.2832 29.2064H41.4062V36.3158H40.5273V33.4789L40.6006 30.5101L39.2871 34.3382H38.7695L37.5635 30.6127L37.6367 33.4789V36.3158H36.7578V29.2064H37.876ZM45.2246 36.4134C44.8535 36.4134 44.5117 36.35 44.1992 36.223C43.89 36.0961 43.6247 35.9187 43.4033 35.6908C43.182 35.4629 43.0094 35.1927 42.8857 34.8802C42.762 34.5677 42.7002 34.2276 42.7002 33.8597V33.6547C42.7002 33.2282 42.7686 32.8474 42.9053 32.5121C43.042 32.1735 43.2227 31.8887 43.4473 31.6576C43.6751 31.4232 43.9323 31.2442 44.2188 31.1205C44.5085 30.9968 44.8047 30.9349 45.1074 30.9349C45.4883 30.9349 45.8203 31.0017 46.1035 31.1351C46.39 31.2653 46.6276 31.4476 46.8164 31.682C47.0052 31.9131 47.1452 32.1866 47.2363 32.5023C47.3307 32.8181 47.3779 33.1599 47.3779 33.5277V33.933H43.6035C43.6133 34.1739 43.6589 34.4001 43.7402 34.6117C43.8249 34.8233 43.9388 35.0088 44.082 35.1683C44.2285 35.3246 44.4027 35.4483 44.6045 35.5394C44.8063 35.6306 45.0293 35.6761 45.2734 35.6761C45.5957 35.6761 45.8822 35.611 46.1328 35.4808C46.3835 35.3506 46.5918 35.1781 46.7578 34.9632L47.3096 35.3929C47.2217 35.5264 47.111 35.655 46.9775 35.7787C46.8473 35.8991 46.696 36.0065 46.5234 36.1009C46.3509 36.1953 46.1556 36.2702 45.9375 36.3256C45.7194 36.3841 45.4818 36.4134 45.2246 36.4134ZM45.1074 31.6771C44.9251 31.6771 44.7526 31.7113 44.5898 31.7797C44.4271 31.8448 44.2806 31.9424 44.1504 32.0726C44.0202 32.1996 43.9095 32.3575 43.8184 32.5463C43.7305 32.7318 43.6686 32.9466 43.6328 33.1908H46.4746V33.1224C46.4648 32.9466 46.4307 32.7725 46.3721 32.6C46.3167 32.4274 46.2337 32.2728 46.123 32.1361C46.0124 31.9994 45.8724 31.8887 45.7031 31.8041C45.5371 31.7194 45.3385 31.6771 45.1074 31.6771ZM52.4072 34.9144C52.4072 34.807 52.3861 34.711 52.3438 34.6263C52.3014 34.5384 52.2298 34.4587 52.1289 34.3871C52.028 34.3155 51.8945 34.2504 51.7285 34.1918C51.5625 34.1299 51.3558 34.0746 51.1084 34.0257C50.8057 33.9639 50.529 33.889 50.2783 33.8011C50.0309 33.7132 49.8177 33.6091 49.6387 33.4886C49.4629 33.3649 49.3262 33.2217 49.2285 33.059C49.1309 32.8929 49.082 32.7009 49.082 32.4828C49.082 32.2679 49.1325 32.0677 49.2334 31.8822C49.3343 31.6934 49.4759 31.529 49.6582 31.389C49.8405 31.2491 50.057 31.1384 50.3076 31.057C50.5615 30.9756 50.8398 30.9349 51.1426 30.9349C51.4681 30.9349 51.7611 30.9772 52.0215 31.0619C52.2819 31.1465 52.5033 31.2637 52.6855 31.4134C52.8678 31.5632 53.0078 31.739 53.1055 31.9408C53.2064 32.1394 53.2568 32.3542 53.2568 32.5853H52.3535C52.3535 32.4714 52.3242 32.3607 52.2656 32.2533C52.207 32.1426 52.1257 32.045 52.0215 31.9603C51.9173 31.8757 51.7904 31.8073 51.6406 31.7552C51.4941 31.7032 51.3281 31.6771 51.1426 31.6771C50.9505 31.6771 50.7812 31.6983 50.6348 31.7406C50.4915 31.7829 50.3711 31.8399 50.2734 31.9115C50.179 31.9831 50.1074 32.0661 50.0586 32.1605C50.0098 32.2549 49.9854 32.3526 49.9854 32.4535C49.9854 32.5577 50.0049 32.6504 50.0439 32.7318C50.083 32.8132 50.1497 32.8864 50.2441 32.9515C50.3418 33.0166 50.4704 33.0752 50.6299 33.1273C50.7926 33.1794 50.9977 33.2299 51.2451 33.2787C51.5706 33.347 51.862 33.4268 52.1191 33.5179C52.3763 33.6058 52.5928 33.7132 52.7686 33.8402C52.9443 33.9639 53.0778 34.1088 53.1689 34.2748C53.2633 34.4408 53.3105 34.6328 53.3105 34.8509C53.3105 35.0853 53.2568 35.2985 53.1494 35.4906C53.0452 35.6827 52.8988 35.847 52.71 35.9838C52.5212 36.1205 52.2949 36.2263 52.0312 36.3011C51.7676 36.376 51.4795 36.4134 51.167 36.4134C50.8089 36.4134 50.4899 36.3662 50.21 36.2718C49.93 36.1742 49.6924 36.0472 49.4971 35.891C49.305 35.7315 49.1569 35.5476 49.0527 35.3392C48.9518 35.1309 48.9014 34.9144 48.9014 34.6898H49.8047C49.8177 34.8754 49.8665 35.0316 49.9512 35.1586C50.0391 35.2855 50.1465 35.3881 50.2734 35.4662C50.4036 35.5443 50.5469 35.5996 50.7031 35.6322C50.8594 35.6647 51.014 35.681 51.167 35.681C51.5479 35.681 51.849 35.611 52.0703 35.4711C52.2917 35.3311 52.404 35.1455 52.4072 34.9144ZM58.4131 34.9144C58.4131 34.807 58.3919 34.711 58.3496 34.6263C58.3073 34.5384 58.2357 34.4587 58.1348 34.3871C58.0339 34.3155 57.9004 34.2504 57.7344 34.1918C57.5684 34.1299 57.3617 34.0746 57.1143 34.0257C56.8115 33.9639 56.5348 33.889 56.2842 33.8011C56.0368 33.7132 55.8236 33.6091 55.6445 33.4886C55.4688 33.3649 55.332 33.2217 55.2344 33.059C55.1367 32.8929 55.0879 32.7009 55.0879 32.4828C55.0879 32.2679 55.1383 32.0677 55.2393 31.8822C55.3402 31.6934 55.4818 31.529 55.6641 31.389C55.8464 31.2491 56.0628 31.1384 56.3135 31.057C56.5674 30.9756 56.8457 30.9349 57.1484 30.9349C57.474 30.9349 57.7669 30.9772 58.0273 31.0619C58.2878 31.1465 58.5091 31.2637 58.6914 31.4134C58.8737 31.5632 59.0137 31.739 59.1113 31.9408C59.2122 32.1394 59.2627 32.3542 59.2627 32.5853H58.3594C58.3594 32.4714 58.3301 32.3607 58.2715 32.2533C58.2129 32.1426 58.1315 32.045 58.0273 31.9603C57.9232 31.8757 57.7962 31.8073 57.6465 31.7552C57.5 31.7032 57.334 31.6771 57.1484 31.6771C56.9564 31.6771 56.7871 31.6983 56.6406 31.7406C56.4974 31.7829 56.377 31.8399 56.2793 31.9115C56.1849 31.9831 56.1133 32.0661 56.0645 32.1605C56.0156 32.2549 55.9912 32.3526 55.9912 32.4535C55.9912 32.5577 56.0107 32.6504 56.0498 32.7318C56.0889 32.8132 56.1556 32.8864 56.25 32.9515C56.3477 33.0166 56.4762 33.0752 56.6357 33.1273C56.7985 33.1794 57.0036 33.2299 57.251 33.2787C57.5765 33.347 57.8678 33.4268 58.125 33.5179C58.3822 33.6058 58.5986 33.7132 58.7744 33.8402C58.9502 33.9639 59.0837 34.1088 59.1748 34.2748C59.2692 34.4408 59.3164 34.6328 59.3164 34.8509C59.3164 35.0853 59.2627 35.2985 59.1553 35.4906C59.0511 35.6827 58.9046 35.847 58.7158 35.9838C58.527 36.1205 58.3008 36.2263 58.0371 36.3011C57.7734 36.376 57.4854 36.4134 57.1729 36.4134C56.8148 36.4134 56.4958 36.3662 56.2158 36.2718C55.9359 36.1742 55.6982 36.0472 55.5029 35.891C55.3109 35.7315 55.1628 35.5476 55.0586 35.3392C54.9577 35.1309 54.9072 34.9144 54.9072 34.6898H55.8105C55.8236 34.8754 55.8724 35.0316 55.957 35.1586C56.0449 35.2855 56.1523 35.3881 56.2793 35.4662C56.4095 35.5443 56.5527 35.5996 56.709 35.6322C56.8652 35.6647 57.0199 35.681 57.1729 35.681C57.5537 35.681 57.8548 35.611 58.0762 35.4711C58.2975 35.3311 58.4098 35.1455 58.4131 34.9144ZM64.3799 36.3158C64.3441 36.2474 64.3148 36.1628 64.292 36.0619C64.2725 35.9577 64.2578 35.8503 64.248 35.7396C64.1569 35.8308 64.0544 35.917 63.9404 35.9984C63.8298 36.0798 63.7061 36.1514 63.5693 36.2132C63.4359 36.2751 63.2926 36.3239 63.1396 36.3597C62.9867 36.3955 62.8239 36.4134 62.6514 36.4134C62.3714 36.4134 62.1175 36.3728 61.8896 36.2914C61.665 36.21 61.473 36.1009 61.3135 35.9642C61.1572 35.8243 61.0352 35.6599 60.9473 35.4711C60.8626 35.279 60.8203 35.0723 60.8203 34.8509C60.8203 34.5612 60.8773 34.3073 60.9912 34.0892C61.1084 33.8711 61.2728 33.6905 61.4844 33.5472C61.696 33.4007 61.9499 33.2917 62.2461 33.2201C62.5456 33.1485 62.8792 33.1127 63.2471 33.1127H64.2334V32.6976C64.2334 32.5381 64.2041 32.3949 64.1455 32.2679C64.0869 32.141 64.0039 32.0336 63.8965 31.9457C63.7891 31.8545 63.6572 31.7845 63.501 31.7357C63.348 31.6869 63.1755 31.6625 62.9834 31.6625C62.8044 31.6625 62.6432 31.6853 62.5 31.7308C62.36 31.7764 62.2412 31.8366 62.1436 31.9115C62.0459 31.9864 61.9694 32.0759 61.9141 32.18C61.862 32.281 61.8359 32.3868 61.8359 32.4974H60.9277C60.931 32.3054 60.9798 32.1166 61.0742 31.931C61.1719 31.7455 61.3102 31.5795 61.4893 31.433C61.6715 31.2832 61.8913 31.1628 62.1484 31.0716C62.4089 30.9805 62.7035 30.9349 63.0322 30.9349C63.3317 30.9349 63.61 30.9724 63.8672 31.0472C64.1243 31.1188 64.3457 31.2295 64.5312 31.3793C64.7201 31.5257 64.8682 31.7097 64.9756 31.931C65.083 32.1524 65.1367 32.4112 65.1367 32.7074V35.1634C65.1367 35.3392 65.153 35.5264 65.1855 35.725C65.2181 35.9203 65.2637 36.0912 65.3223 36.2377V36.3158H64.3799ZM62.7832 35.6273C62.959 35.6273 63.1234 35.6045 63.2764 35.559C63.4294 35.5134 63.5677 35.4532 63.6914 35.3783C63.8184 35.3034 63.9274 35.2188 64.0186 35.1244C64.1097 35.0267 64.1813 34.9258 64.2334 34.8216V33.7523H63.3936C62.8662 33.7523 62.4561 33.8304 62.1631 33.9867C61.8701 34.1429 61.7236 34.3887 61.7236 34.724C61.7236 34.8542 61.7448 34.9746 61.7871 35.0853C61.8327 35.196 61.8994 35.292 61.9873 35.3734C62.0752 35.4515 62.1859 35.5134 62.3193 35.559C62.4528 35.6045 62.6074 35.6273 62.7832 35.6273ZM66.748 33.6302C66.748 33.2364 66.7952 32.875 66.8896 32.5463C66.9873 32.2142 67.1273 31.9294 67.3096 31.6918C67.4919 31.4541 67.7132 31.2686 67.9736 31.1351C68.234 31.0017 68.5286 30.9349 68.8574 30.9349C69.1829 30.9349 69.4678 30.9935 69.7119 31.1107C69.9593 31.2246 70.1693 31.3907 70.3418 31.6088L70.3857 31.0326H71.2061V36.2035C71.2061 36.5518 71.1507 36.861 71.04 37.1312C70.9326 37.4014 70.7796 37.6309 70.5811 37.8197C70.3857 38.0085 70.1514 38.1517 69.8779 38.2494C69.6045 38.347 69.3018 38.3959 68.9697 38.3959C68.833 38.3959 68.6768 38.3796 68.501 38.347C68.3252 38.3177 68.1462 38.2673 67.9639 38.1957C67.7848 38.1273 67.6107 38.0345 67.4414 37.9174C67.2754 37.8002 67.1322 37.6553 67.0117 37.4828L67.4805 36.9408C67.5911 37.0743 67.7051 37.1866 67.8223 37.2777C67.9395 37.3721 68.0583 37.447 68.1787 37.5023C68.2992 37.5577 68.4196 37.5967 68.54 37.6195C68.6605 37.6455 68.7809 37.6586 68.9014 37.6586C69.1162 37.6586 69.3099 37.6276 69.4824 37.5658C69.6549 37.5039 69.8014 37.4128 69.9219 37.2924C70.0456 37.1752 70.14 37.0287 70.2051 36.8529C70.2702 36.6771 70.3027 36.4753 70.3027 36.2474V35.7933C70.127 35.9952 69.9186 36.1498 69.6777 36.2572C69.4401 36.3614 69.1634 36.4134 68.8477 36.4134C68.5254 36.4134 68.234 36.3451 67.9736 36.2084C67.7132 36.0716 67.4919 35.8828 67.3096 35.642C67.1305 35.4011 66.9922 35.1179 66.8945 34.7924C66.7969 34.4636 66.748 34.1104 66.748 33.7328V33.6302ZM67.6514 33.7328C67.6514 33.9899 67.6774 34.2341 67.7295 34.4652C67.7848 34.6963 67.8695 34.8998 67.9834 35.0756C68.1006 35.2513 68.2487 35.3913 68.4277 35.4955C68.6068 35.5964 68.8216 35.6468 69.0723 35.6468C69.2285 35.6468 69.3685 35.6289 69.4922 35.5931C69.6191 35.5541 69.7314 35.5004 69.8291 35.432C69.93 35.3636 70.0195 35.2823 70.0977 35.1879C70.1758 35.0935 70.2441 34.9893 70.3027 34.8754V32.4535C70.2441 32.3428 70.1758 32.2419 70.0977 32.1507C70.0195 32.0596 69.93 31.9815 69.8291 31.9164C69.7282 31.848 69.6159 31.7959 69.4922 31.7601C69.3685 31.7211 69.2318 31.7015 69.082 31.7015C68.8281 31.7015 68.61 31.7536 68.4277 31.8578C68.2487 31.9619 68.1006 32.1035 67.9834 32.2826C67.8695 32.4584 67.7848 32.6634 67.7295 32.8978C67.6774 33.1289 67.6514 33.3731 67.6514 33.6302V33.7328ZM75.2539 36.4134C74.8828 36.4134 74.541 36.35 74.2285 36.223C73.9193 36.0961 73.654 35.9187 73.4326 35.6908C73.2113 35.4629 73.0387 35.1927 72.915 34.8802C72.7913 34.5677 72.7295 34.2276 72.7295 33.8597V33.6547C72.7295 33.2282 72.7979 32.8474 72.9346 32.5121C73.0713 32.1735 73.252 31.8887 73.4766 31.6576C73.7044 31.4232 73.9616 31.2442 74.248 31.1205C74.5378 30.9968 74.834 30.9349 75.1367 30.9349C75.5176 30.9349 75.8496 31.0017 76.1328 31.1351C76.4193 31.2653 76.6569 31.4476 76.8457 31.682C77.0345 31.9131 77.1745 32.1866 77.2656 32.5023C77.36 32.8181 77.4072 33.1599 77.4072 33.5277V33.933H73.6328C73.6426 34.1739 73.6882 34.4001 73.7695 34.6117C73.8542 34.8233 73.9681 35.0088 74.1113 35.1683C74.2578 35.3246 74.432 35.4483 74.6338 35.5394C74.8356 35.6306 75.0586 35.6761 75.3027 35.6761C75.625 35.6761 75.9115 35.611 76.1621 35.4808C76.4128 35.3506 76.6211 35.1781 76.7871 34.9632L77.3389 35.3929C77.251 35.5264 77.1403 35.655 77.0068 35.7787C76.8766 35.8991 76.7253 36.0065 76.5527 36.1009C76.3802 36.1953 76.1849 36.2702 75.9668 36.3256C75.7487 36.3841 75.5111 36.4134 75.2539 36.4134ZM75.1367 31.6771C74.9544 31.6771 74.7819 31.7113 74.6191 31.7797C74.4564 31.8448 74.3099 31.9424 74.1797 32.0726C74.0495 32.1996 73.9388 32.3575 73.8477 32.5463C73.7598 32.7318 73.6979 32.9466 73.6621 33.1908H76.5039V33.1224C76.4941 32.9466 76.46 32.7725 76.4014 32.6C76.346 32.4274 76.263 32.2728 76.1523 32.1361C76.0417 31.9994 75.9017 31.8887 75.7324 31.8041C75.5664 31.7194 75.3678 31.6771 75.1367 31.6771Z" fill="black"/>
<path d="M48.1809 21.992C48.1172 22.0027 48.0521 22.0027 47.9884 21.992H44.0575C43.967 21.9925 43.8773 21.9752 43.7936 21.941C43.7099 21.9068 43.6337 21.8564 43.5695 21.7927L31.1993 9.42252C31.1356 9.3583 31.0852 9.28215 31.051 9.19842C31.0168 9.11469 30.9995 9.02503 31 8.93458V4.81118C30.9995 4.72074 31.0168 4.63108 31.051 4.54735C31.0852 4.46362 31.1356 4.38746 31.1993 4.32324L35.3227 0.199843C35.4515 0.0718446 35.6257 0 35.8072 0C35.9888 0 36.1629 0.0718446 36.2917 0.199843L39.7279 3.63601C39.8559 3.76477 39.9277 3.93895 39.9277 4.12051C39.9277 4.30207 39.8559 4.47625 39.7279 4.60501L37.1851 7.1409V7.94497L45.0127 15.8069H45.8168L48.3664 13.2573C48.4952 13.1293 48.6693 13.0574 48.8509 13.0574C49.0325 13.0574 49.2066 13.1293 49.3354 13.2573L52.7716 16.6935C52.8392 16.7577 52.893 16.8349 52.9297 16.9206C52.9665 17.0062 52.9855 17.0985 52.9855 17.1917C52.9855 17.2849 52.9665 17.3772 52.9297 17.4628C52.893 17.5485 52.8392 17.6257 52.7716 17.6899L48.6482 21.8133C48.5204 21.9295 48.3535 21.9933 48.1809 21.992ZM44.3186 20.6176H47.9266L51.3627 17.1814L48.8681 14.7005L46.6071 16.9615C46.5446 17.0289 46.4692 17.0831 46.3854 17.1209C46.3016 17.1587 46.2111 17.1792 46.1192 17.1814H44.7447C44.6542 17.1819 44.5646 17.1646 44.4809 17.1304C44.3971 17.0962 44.321 17.0458 44.2567 16.9821L36.0099 8.73528C35.9463 8.67107 35.8959 8.59491 35.8617 8.51118C35.8275 8.42745 35.8101 8.33779 35.8106 8.24735V6.87288C35.8101 6.78244 35.8275 6.69278 35.8617 6.60905C35.8959 6.52532 35.9463 6.44916 36.0099 6.38495L38.2641 4.12395L35.8106 1.64303L32.3745 5.0792V8.6322L44.3186 20.6176Z" fill="black"/>
<path d="M47.2793 15.305L46.3074 16.2769L49.743 19.7126L50.7149 18.7407L47.2793 15.305Z" fill="black"/>
<path d="M34.2218 2.24757L33.2499 3.21947L36.6855 6.65512L37.6574 5.68322L34.2218 2.24757Z" fill="black"/>
<path d="M45.432 12.3707C45.2497 12.3707 45.0749 12.2983 44.946 12.1694C44.8172 12.0405 44.7448 11.8657 44.7448 11.6835V9.62177H41.9958C41.8136 9.62177 41.6388 9.54937 41.5099 9.42049C41.381 9.29161 41.3086 9.11681 41.3086 8.93454V0.687737C41.3086 0.505472 41.381 0.330671 41.5099 0.20179C41.6388 0.0729083 41.8136 0.00050354 41.9958 0.00050354L52.3043 0.00050354C52.4866 0.00050354 52.6614 0.0729083 52.7903 0.20179C52.9192 0.330671 52.9916 0.505472 52.9916 0.687737V8.93454C52.9916 9.11681 52.9192 9.29161 52.7903 9.42049C52.6614 9.54937 52.4866 9.62177 52.3043 9.62177H48.4627L45.9131 12.1714C45.7851 12.2984 45.6123 12.37 45.432 12.3707ZM42.6831 8.24731H45.432C45.6143 8.24731 45.7891 8.31971 45.9179 8.44859C46.0468 8.57748 46.1192 8.75228 46.1192 8.93454V10.0272L47.693 8.45348C47.7566 8.38854 47.8325 8.33688 47.9163 8.30149C48.0001 8.2661 48.09 8.24769 48.1809 8.24731H51.6171V1.37497H42.6831V8.24731Z" fill="black"/>
<path d="M50.2425 2.7495H44.0574V4.12396H50.2425V2.7495Z" fill="black"/>
<path d="M50.2425 5.49844H44.0574V6.87291H50.2425V5.49844Z" fill="black"/>
</svg>
