<svg width="73" height="10" viewBox="0 0 73 10" fill="none" xmlns="http://www.w3.org/2000/svg">
<path d="M71.2026 6.78457V3.24759C71.9743 3.11897 72.5852 2.44373 72.5852 1.63987C72.5852 0.73955 71.8457 0 70.9453 0C70.045 0 69.3055 0.73955 69.3055 1.63987C69.3055 2.44373 69.9164 3.11897 70.6881 3.24759V6.75241C70.3023 6.81672 69.9807 6.97749 69.7235 7.26688L67.0225 5.88424C67.1833 5.62701 67.2797 5.33762 67.2797 5.01608C67.2797 4.11576 66.5402 3.37621 65.6399 3.37621C64.7395 3.37621 64 4.11576 64 5.01608C64 5.9164 64.7395 6.65595 65.6399 6.65595C66.0257 6.65595 66.3794 6.52733 66.6688 6.2701L69.4984 7.68489C69.4019 7.87781 69.3376 8.13505 69.3376 8.36013C69.3376 9.26045 70.0772 10 70.9775 10C71.8778 10 72.6174 9.26045 72.6174 8.36013C72.5852 7.55627 71.9743 6.88103 71.2026 6.78457Z" fill="black"/>
<path d="M0.662109 2.8L1.15866 9.14483C1.18625 9.62759 1.61383 10 2.11039 10H7.29659C7.80694 10 8.22073 9.62759 8.24832 9.14483L8.74487 2.8H0.662109ZM6.37245 7.07587C6.57935 7.28276 6.57935 7.6138 6.37245 7.82069C6.2759 7.93104 6.13797 7.97242 6.00004 7.97242C5.86211 7.97242 5.73797 7.91724 5.62763 7.82069L4.70349 6.88276L3.77935 7.8069C3.6828 7.91724 3.54487 7.95862 3.40694 7.95862C3.26901 7.95862 3.14487 7.90345 3.03452 7.8069C2.82763 7.6 2.82763 7.26897 3.03452 7.06207L3.95866 6.13793L3.03452 5.2138C2.82763 5.0069 2.82763 4.67586 3.03452 4.46897C3.24142 4.26207 3.57245 4.26207 3.77935 4.46897L4.70349 5.39311L5.62763 4.46897C5.83452 4.26207 6.16556 4.26207 6.37245 4.46897C6.57935 4.67586 6.57935 5.0069 6.37245 5.2138L5.44832 6.13793L6.37245 7.07587Z" fill="black"/>
<path d="M9.10345 0.689655H6.67586L6.5931 0.22069C6.56552 0.0965518 6.46897 0 6.34483 0H3.08966C2.96552 0 2.86897 0.0965518 2.84138 0.22069L2.77241 0.689655H0.303448C0.137931 0.689655 0 0.827586 0 0.993103V2.08276C0 2.24828 0.137931 2.38621 0.303448 2.38621H9.10345C9.26897 2.38621 9.4069 2.24828 9.4069 2.08276V0.993103C9.4069 0.827586 9.26897 0.689655 9.10345 0.689655Z" fill="black"/>
</svg>
