<svg xmlns="http://www.w3.org/2000/svg" xmlns:xlink="http://www.w3.org/1999/xlink" version="1.1" x="0px" y="0px" viewBox="0 0 32 40" enable-background="new 0 0 32 32" xml:space="preserve"><g><path d="M27.5,12.5H16.8v-2h5.9c0.1,0,0.3,0,0.4-0.1l4.8-3.2c0.2-0.1,0.3-0.4,0.3-0.6c0-0.3-0.1-0.5-0.3-0.6l-4.8-3.2   c-0.1-0.1-0.3-0.1-0.4-0.1h-5.9V1.3c0-0.4-0.3-0.8-0.8-0.8c-0.4,0-0.8,0.3-0.8,0.8v1.3H4.5c-0.4,0-0.8,0.3-0.8,0.8v6.4   c0,0.4,0.3,0.8,0.8,0.8h10.7v2H9.3c-0.1,0-0.3,0-0.4,0.1l-4.8,3.2c-0.2,0.1-0.3,0.4-0.3,0.6c0,0.3,0.1,0.5,0.3,0.6l4.8,3.2   c0.1,0.1,0.3,0.1,0.4,0.1h5.9V30h-2.7c-0.4,0-0.8,0.3-0.8,0.8s0.3,0.8,0.8,0.8h6.9c0.4,0,0.8-0.3,0.8-0.8S19.9,30,19.4,30h-2.7   v-9.6h10.7c0.4,0,0.8-0.3,0.8-0.8v-6.4C28.3,12.8,27.9,12.5,27.5,12.5z"/></g><text x="0" y="47" fill="#000000" font-size="5px" font-weight="bold" font-family="'Helvetica Neue', Helvetica, Arial-Unicode, Arial, Sans-serif">Created by Creative Stall</text><text x="0" y="52" fill="#000000" font-size="5px" font-weight="bold" font-family="'Helvetica Neue', Helvetica, Arial-Unicode, Arial, Sans-serif">from the Noun Project</text></svg>