<svg width="25" height="27" viewBox="0 0 25 27" fill="none" xmlns="http://www.w3.org/2000/svg">
<path d="M10.7501 10.7501C10.7501 6.82544 13.4802 3.58335 17.3195 2.98613C17.6608 2.98613 17.9168 2.98613 18.258 2.90081V2.30359C18.258 1.02382 17.2342 0 15.9545 0H2.30359C1.02382 0 0 1.02382 0 2.30359V20.2204H18.258V18.5993C17.9168 18.5993 17.6608 18.5993 17.3195 18.514C13.4802 17.8315 10.7501 14.5894 10.7501 10.7501Z" fill="black"/>
<path d="M0 24.145C0 25.4248 1.02382 26.4486 2.30359 26.4486H15.9545C17.2342 26.4486 18.258 25.4248 18.258 24.145V21.5001H0V24.145ZM8.44648 22.7799C8.44648 22.4386 8.70243 22.0974 9.12902 22.0974C9.55561 22.0974 9.81157 22.3533 9.81157 22.7799V23.889C9.81157 24.2303 9.55561 24.5716 9.12902 24.5716C8.70243 24.5716 8.44648 24.3156 8.44648 23.889V22.7799Z" fill="black"/>
<path d="M18.514 4.2659C18.1728 4.2659 17.8315 4.2659 17.4902 4.35122C14.3335 4.86313 12.0299 7.5933 12.0299 10.7501C12.0299 13.9921 14.3335 16.637 17.4902 17.1489C17.8315 17.2342 18.1728 17.2342 18.514 17.2342C22.0974 17.2342 24.9982 14.3334 24.9982 10.7501C25.0835 7.16671 22.1827 4.2659 18.514 4.2659ZM22.1827 11.4326H19.1966V14.4187C19.1966 14.76 18.9406 15.1013 18.514 15.1013C18.1728 15.1013 17.8315 14.8453 17.8315 14.4187V11.4326H14.8454C14.5041 11.4326 14.1628 11.1767 14.1628 10.7501C14.1628 10.4088 14.4188 10.0675 14.8454 10.0675H17.8315V7.08139C17.9168 6.74012 18.1728 6.39885 18.514 6.39885C18.8553 6.39885 19.1966 6.6548 19.1966 7.08139V10.0675H22.1827C22.524 10.0675 22.8653 10.3235 22.8653 10.7501C22.8653 11.1767 22.6093 11.4326 22.1827 11.4326Z" fill="black"/>
</svg>
