<svg width="12" height="12" viewBox="0 0 8 8" fill="none" xmlns="http://www.w3.org/2000/svg">
<path d="M4.72415 4.99811L4.72317 4.99615C4.31124 5.39438 3.91399 5.71042 3.57936 5.87383C3.3142 6.00298 3.10187 6.03038 2.98055 5.90807C2.88172 5.80925 2.84454 5.70455 2.85139 5.5891C2.8602 5.45113 2.92673 5.28676 3.02947 5.09498C3.06958 5.02062 3.05393 4.92962 2.99718 4.87189L1.14693 3.02262C1.47765 2.81519 1.83674 2.5285 2.18213 2.18213C2.5285 1.83674 2.81519 1.47765 3.02262 1.14693L4.87189 2.99718C4.93549 3.06078 5.03236 3.06959 5.10574 3.02458C5.29263 2.9238 5.45309 2.85922 5.5891 2.85139C5.70455 2.84454 5.80925 2.88172 5.90807 2.98055C6.03038 3.10187 6.00298 3.3142 5.87383 3.57936C5.70945 3.91595 5.39145 4.31417 4.99028 4.72904L4.99224 4.73002L7.93836 7.67613C8.01174 7.75049 8.01174 7.87084 7.93836 7.94423C7.86399 8.01859 7.74462 8.01859 7.67026 7.94423L4.72415 4.99811ZM1.11073 1.11073C0.680208 1.54124 0.35047 1.98546 0.166521 2.35434C0.00996888 2.66646 -0.0448244 2.90227 0.0393224 2.98642C0.123469 3.06959 0.358297 3.01577 0.670423 2.85922C1.04028 2.67429 1.48449 2.34455 1.91501 1.91501C2.34455 1.48449 2.67429 1.04028 2.85922 0.670423C3.01577 0.358297 3.06959 0.123469 2.98642 0.0393224C2.90227 -0.0448244 2.66646 0.00996888 2.35434 0.166521C1.98546 0.35047 1.54124 0.680208 1.11073 1.11073Z" fill="#20093B"/>
</svg>
