<svg width="17" height="31" viewBox="0 0 17 31" fill="none" xmlns="http://www.w3.org/2000/svg">
<path d="M7.52548 12.2V25.2C7.52548 25.6 7.82548 26 8.32548 26C8.72548 26 9.12548 25.7 9.12548 25.2V12.2C12.1255 11.8 14.4255 9.3 14.4255 6.1C14.4255 2.7 11.7255 0 8.32548 0C4.92548 0 2.22548 2.7 2.22548 6.1C2.22548 9.2 4.52548 11.8 7.52548 12.2Z" fill="black" fill-opacity="0.2"/>
<path d="M16.0255 29.5L10.9255 27.9L16.0255 26.3C16.4255 26.2 16.6255 25.8 16.5255 25.3C16.4255 24.9 16.0255 24.7 15.5255 24.8L8.32548 27.1L1.02548 24.9C0.625483 24.8 0.225483 25 0.0254834 25.4C-0.0745166 25.8 0.125483 26.2 0.525483 26.4L5.62548 28L0.625484 29.5C0.225484 29.6 0.0254838 30 0.125484 30.5C0.225484 30.8 0.525484 31 0.825484 31C0.925484 31 0.925483 31 1.02548 31L8.32548 28.8L15.6255 31C15.7255 31 15.7255 31 15.8255 31C16.1255 31 16.4255 30.8 16.5255 30.5C16.7255 30.1 16.4255 29.6 16.0255 29.5Z" fill="black" fill-opacity="0.2"/>
</svg>
