<svg width="10" height="18" viewBox="0 0 10 18" fill="none" xmlns="http://www.w3.org/2000/svg">
<path d="M9.60452 4.91525C9.37853 4.91525 9.15254 5.08474 9.15254 5.36723V9.71751C9.15254 11.9774 7.28814 13.8418 5.02825 13.8418C2.76836 13.8418 0.903955 11.9774 0.903955 9.71751V5.36723C0.903955 5.14124 0.734463 4.91525 0.451978 4.91525C0.225989 4.91525 0 5.08474 0 5.36723V9.71751C0 12.3164 2.0339 14.4633 4.57627 14.6893V16.6667H2.42938C2.20339 16.6667 1.9774 16.8362 1.9774 17.1186C1.9774 17.3446 2.14689 17.5706 2.42938 17.5706H7.57062C7.79661 17.5706 8.0226 17.4011 8.0226 17.1186C8.0226 16.8927 7.85311 16.6667 7.57062 16.6667H5.42373V14.6893C7.9661 14.4633 10 12.3164 10 9.71751V5.36723C10 5.14124 9.83051 4.91525 9.60452 4.91525Z" fill="#FFF606"/>
<path d="M6.44069 0.338983V2.93785C6.44069 3.16384 6.2712 3.38983 5.98871 3.38983C5.76272 3.38983 5.53674 3.22034 5.53674 2.93785V0.0564972C5.36724 1.26281e-08 5.14126 0 4.97176 0C4.80227 0 4.57628 1.26281e-08 4.40679 0.0564972V2.93785C4.40679 3.16384 4.2373 3.38983 3.95482 3.38983C3.72883 3.38983 3.50284 3.22034 3.50284 2.93785V0.338983C2.54239 0.847458 1.80792 1.9774 1.80792 3.22034V6.72316H8.3051V3.22034C8.2486 1.9774 7.51414 0.847458 6.44069 0.338983Z" fill="#FFF606"/>
<path d="M1.80792 9.71751C1.80792 11.5254 3.27685 12.9379 5.02826 12.9379C6.83617 12.9379 8.2486 11.4689 8.2486 9.71751V7.62712H1.80792V9.71751Z" fill="#FFF606"/>
</svg>
