<svg width="24" height="20" viewBox="0 0 24 20" fill="none" xmlns="http://www.w3.org/2000/svg">
<path d="M21.4286 1.35338C21.4286 0.601504 20.8271 0 20.0752 0H18.2707L10.1504 9.77444H15.9398L21.4286 3.15789V1.35338Z" fill="white"/>
<path d="M22.7068 18.8722H21.4286V8.42106V6.39098V4.88722L17.3684 9.69925H20.0752C20.1504 9.69925 20.2256 9.69925 20.3007 9.69925V18.797H19.0225C18.7218 18.797 18.421 19.0226 18.421 19.3985C18.421 19.6993 18.6466 20 19.0225 20H22.7819C23.0827 20 23.3834 19.7744 23.3834 19.3985C23.3083 19.0977 23.0827 18.8722 22.7068 18.8722Z" fill="white"/>
<path d="M11.0526 0L2.93233 9.77444C2.55639 9.69925 2.18045 9.3985 2.03008 9.02256L9.54887 0H3.23308C2.4812 0 1.8797 0.601504 1.8797 1.35338V6.2406V8.42105V18.797H0.601504C0.300752 18.797 0 19.0226 0 19.3985C0 19.6992 0.225564 20 0.601504 20H4.3609C4.66165 20 4.88722 19.7744 4.88722 19.4737C4.88722 19.1729 4.66165 18.8722 4.28571 18.8722H3.00752V9.77444C3.08271 9.77444 3.1579 9.77444 3.23308 9.77444H8.64662L16.8421 0H11.0526Z" fill="white"/>
</svg>
