<svg width="35" height="34" viewBox="0 0 35 34" fill="none" xmlns="http://www.w3.org/2000/svg">
<path d="M31.3773 3.50543C29.0092 1.20499 25.9645 0 22.6942 0C19.424 0 16.3793 1.20499 14.0112 3.50543C9.3878 7.99675 9.27504 15.0076 13.4474 19.718L10.741 22.4566C9.50057 21.7994 7.92184 22.0185 6.90694 22.8948L0.930323 28.7007C-0.310108 29.9057 -0.310108 31.8775 0.930323 33.0825C1.49416 33.6302 2.28352 33.9588 3.18565 33.9588C4.08778 33.9588 4.87715 33.6302 5.44098 33.0825L11.4176 27.2766C11.9814 26.7289 12.3197 25.9621 12.3197 25.0857C12.3197 24.538 12.207 23.9903 11.8687 23.5521L14.5751 20.923C16.8304 22.7853 19.6495 23.8807 22.5815 23.8807C25.8517 23.8807 28.8964 22.6757 31.2645 20.3753C36.2262 15.6649 36.2262 8.1063 31.3773 3.50543ZM28.107 17.1985C25.0623 20.1562 20.2134 20.1562 17.2815 17.1985C14.2368 14.2408 14.2368 9.53037 17.2815 6.68222C20.3261 3.72451 25.1751 3.72451 28.107 6.68222C31.039 9.63992 31.1517 14.2408 28.107 17.1985Z" fill="black"/>
</svg>
