<svg width="26" height="20" viewBox="0 0 26 20" fill="none" xmlns="http://www.w3.org/2000/svg">
<path d="M2.7674 20H0.64433C0.289948 20 0 19.7101 0 19.3557V17.2423C0 16.8879 0.289948 16.5979 0.64433 16.5979C1.22101 16.5979 1.68814 16.1276 1.68814 15.5509C1.68814 14.9742 1.21778 14.5039 0.64433 14.5039C0.289948 14.5039 0 14.2139 0 13.8595V11.9201C0 11.5657 0.289948 11.2758 0.64433 11.2758C1.22101 11.2758 1.68814 10.8054 1.68814 10.232C1.68814 9.6585 1.21778 9.18492 0.64433 9.18492C0.289948 9.18492 0 8.89497 0 8.54059V6.60116C0 6.24678 0.289948 5.95683 0.64433 5.95683C1.22101 5.95683 1.68814 5.48647 1.68814 4.90979C1.68814 4.33312 1.21778 3.86276 0.64433 3.86276C0.289948 3.86276 0 3.57281 0 3.21843V0.64433C0 0.289948 0.289948 0 0.64433 0H2.75451C3.10889 0 3.39884 0.289948 3.39884 0.64433C3.39884 1.22101 3.8692 1.69137 4.44266 1.69137C5.01611 1.69137 5.48969 1.22101 5.48969 0.64433C5.48969 0.289948 5.77964 0 6.13402 0H8.07345C8.42784 0 8.71778 0.289948 8.71778 0.64433C8.71778 1.22101 9.19137 1.69137 9.77771 1.69137C10.3608 1.69137 10.8376 1.22101 10.8376 0.64433C10.8376 0.289948 11.1276 0 11.482 0H13.4214C13.7758 0 14.0657 0.289948 14.0657 0.64433C14.0657 1.22101 14.5361 1.69137 15.1095 1.69137C15.683 1.69137 16.1566 1.22101 16.1566 0.64433C16.1566 0.289948 16.4465 0 16.8009 0H18.9111C19.2655 0 19.5554 0.289948 19.5554 0.64433V3.21843C19.5554 3.57281 19.2655 3.86276 18.9111 3.86276C18.3344 3.86276 17.8673 4.33312 17.8673 4.90979C17.8673 5.48647 18.3376 5.95683 18.9111 5.95683C19.2655 5.95683 19.5554 6.24678 19.5554 6.60116V10.712C19.5554 11.0664 19.2655 11.3563 18.9111 11.3563C18.5567 11.3563 18.2668 11.0664 18.2668 10.712V7.15528C17.2906 6.875 16.5786 5.97616 16.5786 4.91302C16.5786 3.84987 17.2938 2.95103 18.2668 2.67075V1.2951H17.355C17.0747 2.27126 16.1759 2.98647 15.1128 2.98647C14.0496 2.98647 13.1508 2.27126 12.8705 1.2951H12.0393C11.7558 2.27126 10.8537 2.98647 9.78093 2.98647C8.71134 2.98647 7.80606 2.27126 7.52577 1.2951H6.69137C6.41108 2.27126 5.51224 2.98647 4.4491 2.98647C3.38595 2.98647 2.48711 2.27126 2.20683 1.2951H1.28866V2.67075C2.26482 2.95103 2.9768 3.84987 2.9768 4.91302C2.9768 5.97616 2.2616 6.875 1.28866 7.15528V7.98647C2.26482 8.26675 2.9768 9.16559 2.9768 10.2287C2.9768 11.2919 2.2616 12.1907 1.28866 12.471V13.3022C2.26482 13.5825 2.9768 14.4813 2.9768 15.5445C2.9768 16.6076 2.2616 17.5064 1.28866 17.7867V18.7017H2.21327C2.49356 17.7223 3.3924 17.0071 4.45554 17.0071C5.51869 17.0071 6.41753 17.7223 6.69781 18.6985H18.2474L18.2281 16.8782C18.2249 16.5238 18.5116 16.2307 18.866 16.2274C18.8692 16.2274 18.8692 16.2274 18.8724 16.2274C19.2268 16.2274 19.5135 16.511 19.5168 16.8653L19.5425 19.3363C19.5425 19.5071 19.4781 19.6746 19.3557 19.797C19.2332 19.9195 19.0689 19.9871 18.8982 19.9871H6.14691C5.79253 19.9871 5.50258 19.6972 5.50258 19.3428C5.50258 18.7661 5.03222 18.2957 4.45554 18.2957C3.87887 18.2957 3.41173 18.7661 3.41173 19.346C3.41173 19.7133 3.125 20 2.7674 20Z" fill="#FF1800"/>
<path d="M9.65529 15.2803H5.39949C5.2223 15.2803 5.07732 15.1353 5.07732 14.9581V5.04832C5.07732 4.87112 5.2223 4.72615 5.39949 4.72615H14.1559C14.3331 4.72615 14.4781 4.87112 14.4781 5.04832V12.3164C14.4781 12.4935 14.3331 12.6385 14.1559 12.6385C13.9787 12.6385 13.8338 12.4935 13.8338 12.3164V5.37048H5.72165V14.6359H9.65529C9.83248 14.6359 9.97745 14.7809 9.97745 14.9581C9.97745 15.1353 9.83248 15.2803 9.65529 15.2803Z" fill="#FF1800"/>
<path d="M22.7545 16.5786C21.3466 16.5786 20.5026 15.9246 19.8615 15.2835C18.8466 14.2687 17.8898 14.1591 17.5258 14.1591C17.1617 14.1591 16.2049 14.2687 15.1901 15.2835C14.549 15.9246 13.7049 16.5786 12.297 16.5786C10.9085 16.5786 9.63917 15.5187 9.00773 14.884C8.75644 14.6327 8.75644 14.2236 9.00773 13.9723C9.25902 13.721 9.66817 13.721 9.91946 13.9723C10.7442 14.797 11.6334 15.2867 12.297 15.2867C13.0638 15.2867 13.6179 15.029 14.2783 14.3686C15.6347 13.0122 17.0006 12.8673 17.5258 12.8673C18.0509 12.8673 19.4169 13.0122 20.7732 14.3686C21.4336 15.029 21.9878 15.2867 22.7545 15.2867C23.5213 15.2867 24.0754 15.029 24.7358 14.3686C24.9871 14.1173 25.3963 14.1173 25.6476 14.3686C25.8988 14.6198 25.8988 15.029 25.6476 15.2803C25.0097 15.9214 24.1624 16.5786 22.7545 16.5786Z" fill="#FF1800"/>
<path d="M22.7545 19.6392C21.3467 19.6392 20.5026 18.9852 19.8647 18.3441C18.8499 17.3292 17.8931 17.2197 17.529 17.2197C17.165 17.2197 16.2081 17.3292 15.1933 18.3441C14.5522 18.9852 13.7081 19.6392 12.3003 19.6392C10.8924 19.6392 10.0483 18.9852 9.40723 18.3441C9.15594 18.0928 9.15594 17.6836 9.40723 17.4323C9.65852 17.181 10.0677 17.181 10.319 17.4323C10.9794 18.0928 11.5367 18.3505 12.3003 18.3505C13.067 18.3505 13.6211 18.0928 14.2816 17.4323C15.6379 16.076 17.0039 15.931 17.529 15.931C18.0541 15.931 19.4201 16.076 20.7764 17.4323C21.4369 18.0928 21.9942 18.3505 22.7577 18.3505C23.5245 18.3505 24.0786 18.0928 24.7391 17.4323C24.9903 17.181 25.3995 17.181 25.6508 17.4323C25.9021 17.6836 25.9021 18.0928 25.6508 18.3441C25.0097 18.9819 24.1624 19.6392 22.7545 19.6392Z" fill="#FF1800"/>
<path d="M22.7545 13.518C21.3467 13.518 20.5026 12.864 19.8647 12.2229C18.8499 11.2081 17.8931 11.0986 17.529 11.0986C17.165 11.0986 16.2081 11.2081 15.1933 12.2229C14.5522 12.864 13.7081 13.518 12.3003 13.518C10.8924 13.518 10.0483 12.864 9.40723 12.2229C9.15594 11.9716 9.15594 11.5625 9.40723 11.3112C9.65852 11.0599 10.0677 11.0599 10.319 11.3112C10.9794 11.9716 11.5367 12.2294 12.3003 12.2294C13.0638 12.2294 13.6211 11.9716 14.2816 11.3112C15.6379 9.9549 17.0039 9.80992 17.529 9.80992C18.0541 9.80992 19.4201 9.9549 20.7764 11.3112C21.4369 11.9716 21.9942 12.2294 22.7577 12.2294C23.5245 12.2294 24.0786 11.9716 24.7391 11.3112C24.9903 11.0599 25.3995 11.0599 25.6508 11.3112C25.9021 11.5625 25.9021 11.9716 25.6508 12.2229C25.0097 12.8608 24.1624 13.518 22.7545 13.518Z" fill="#FF1800"/>
</svg>
