<svg width="220" height="45" viewBox="0 0 220 45" fill="none" xmlns="http://www.w3.org/2000/svg">
<path d="M29.07 44V12.5H3.375V44H9.81V33.65H22.635V44H29.07ZM9.81 18.665H22.635V27.53H9.81V18.665ZM59.3856 32.48V12.5H35.8506V44H42.2856V32.48H48.6756L53.7156 44H60.6456L55.6506 32.48H59.3856ZM42.2856 18.665H53.4456V27.035H42.2856V18.665ZM87.236 18.665V12.5H66.041V44H87.236V37.88H72.476V31.13H86.201V24.965H72.476V18.665H87.236ZM118.543 44V12.5H92.8477V44H99.2827V33.65H112.108V44H118.543ZM99.2827 18.665H112.108V27.53H99.2827V18.665ZM147.328 25.145V12.5H125.323V44H151.288V25.145H147.328ZM131.758 18.665H141.073V25.145H131.758V18.665ZM131.758 30.635H144.853V37.88H131.758V30.635ZM172.698 11.96C163.428 11.96 156.273 18.98 156.273 28.25C156.273 37.565 163.428 44.585 172.698 44.585C181.968 44.585 189.078 37.565 189.078 28.25C189.078 18.98 181.968 11.96 172.698 11.96ZM172.698 18.08C178.323 18.08 182.553 22.4 182.553 28.25C182.553 34.145 178.323 38.465 172.698 38.465C167.028 38.465 162.798 34.145 162.798 28.25C162.798 22.4 167.028 18.08 172.698 18.08ZM208.403 28.16L218.303 12.5H210.608L204.533 22.58L198.413 12.5H190.763L200.483 27.71L190.268 44H197.918L204.353 33.245L210.878 44H218.528L208.403 28.16Z" fill="black"/>
<path d="M29.07 44V44.05H29.12V44H29.07ZM29.07 12.5H29.12V12.45H29.07V12.5ZM3.375 12.5V12.45H3.325V12.5H3.375ZM3.375 44H3.325V44.05H3.375V44ZM9.81 44V44.05H9.86V44H9.81ZM9.81 33.65V33.6H9.76V33.65H9.81ZM22.635 33.65H22.685V33.6H22.635V33.65ZM22.635 44H22.585V44.05H22.635V44ZM9.81 18.665V18.615H9.76V18.665H9.81ZM22.635 18.665H22.685V18.615H22.635V18.665ZM22.635 27.53V27.58H22.685V27.53H22.635ZM9.81 27.53H9.76V27.58H9.81V27.53ZM29.12 44V12.5H29.02V44H29.12ZM29.07 12.45H3.375V12.55H29.07V12.45ZM3.325 12.5V44H3.425V12.5H3.325ZM3.375 44.05H9.81V43.95H3.375V44.05ZM9.86 44V33.65H9.76V44H9.86ZM9.81 33.7H22.635V33.6H9.81V33.7ZM22.585 33.65V44H22.685V33.65H22.585ZM22.635 44.05H29.07V43.95H22.635V44.05ZM9.81 18.715H22.635V18.615H9.81V18.715ZM22.585 18.665V27.53H22.685V18.665H22.585ZM22.635 27.48H9.81V27.58H22.635V27.48ZM9.86 27.53V18.665H9.76V27.53H9.86ZM59.3856 32.48V32.53H59.4356V32.48H59.3856ZM59.3856 12.5H59.4356V12.45H59.3856V12.5ZM35.8506 12.5V12.45H35.8006V12.5H35.8506ZM35.8506 44H35.8006V44.05H35.8506V44ZM42.2856 44V44.05H42.3356V44H42.2856ZM42.2856 32.48V32.43H42.2356V32.48H42.2856ZM48.6756 32.48L48.7214 32.46L48.7083 32.43H48.6756V32.48ZM53.7156 44L53.6698 44.02L53.6829 44.05H53.7156V44ZM60.6456 44V44.05H60.7218L60.6915 43.9801L60.6456 44ZM55.6506 32.48V32.43H55.5744L55.6047 32.4999L55.6506 32.48ZM42.2856 18.665V18.615H42.2356V18.665H42.2856ZM53.4456 18.665H53.4956V18.615H53.4456V18.665ZM53.4456 27.035V27.085H53.4956V27.035H53.4456ZM42.2856 27.035H42.2356V27.085H42.2856V27.035ZM59.4356 32.48V12.5H59.3356V32.48H59.4356ZM59.3856 12.45H35.8506V12.55H59.3856V12.45ZM35.8006 12.5V44H35.9006V12.5H35.8006ZM35.8506 44.05H42.2856V43.95H35.8506V44.05ZM42.3356 44V32.48H42.2356V44H42.3356ZM42.2856 32.53H48.6756V32.43H42.2856V32.53ZM48.6298 32.5L53.6698 44.02L53.7614 43.98L48.7214 32.46L48.6298 32.5ZM53.7156 44.05H60.6456V43.95H53.7156V44.05ZM60.6915 43.9801L55.6965 32.4601L55.6047 32.4999L60.5997 44.0199L60.6915 43.9801ZM55.6506 32.53H59.3856V32.43H55.6506V32.53ZM42.2856 18.715H53.4456V18.615H42.2856V18.715ZM53.3956 18.665V27.035H53.4956V18.665H53.3956ZM53.4456 26.985H42.2856V27.085H53.4456V26.985ZM42.3356 27.035V18.665H42.2356V27.035H42.3356ZM87.236 18.665V18.715H87.286V18.665H87.236ZM87.236 12.5H87.286V12.45H87.236V12.5ZM66.041 12.5V12.45H65.991V12.5H66.041ZM66.041 44H65.991V44.05H66.041V44ZM87.236 44V44.05H87.286V44H87.236ZM87.236 37.88H87.286V37.83H87.236V37.88ZM72.476 37.88H72.426V37.93H72.476V37.88ZM72.476 31.13V31.08H72.426V31.13H72.476ZM86.201 31.13V31.18H86.251V31.13H86.201ZM86.201 24.965H86.251V24.915H86.201V24.965ZM72.476 24.965H72.426V25.015H72.476V24.965ZM72.476 18.665V18.615H72.426V18.665H72.476ZM87.286 18.665V12.5H87.186V18.665H87.286ZM87.236 12.45H66.041V12.55H87.236V12.45ZM65.991 12.5V44H66.091V12.5H65.991ZM66.041 44.05H87.236V43.95H66.041V44.05ZM87.286 44V37.88H87.186V44H87.286ZM87.236 37.83H72.476V37.93H87.236V37.83ZM72.526 37.88V31.13H72.426V37.88H72.526ZM72.476 31.18H86.201V31.08H72.476V31.18ZM86.251 31.13V24.965H86.151V31.13H86.251ZM86.201 24.915H72.476V25.015H86.201V24.915ZM72.526 24.965V18.665H72.426V24.965H72.526ZM72.476 18.715H87.236V18.615H72.476V18.715ZM118.543 44V44.05H118.593V44H118.543ZM118.543 12.5H118.593V12.45H118.543V12.5ZM92.8477 12.5V12.45H92.7977V12.5H92.8477ZM92.8477 44H92.7977V44.05H92.8477V44ZM99.2827 44V44.05H99.3327V44H99.2827ZM99.2827 33.65V33.6H99.2327V33.65H99.2827ZM112.108 33.65H112.158V33.6H112.108V33.65ZM112.108 44H112.058V44.05H112.108V44ZM99.2827 18.665V18.615H99.2327V18.665H99.2827ZM112.108 18.665H112.158V18.615H112.108V18.665ZM112.108 27.53V27.58H112.158V27.53H112.108ZM99.2827 27.53H99.2327V27.58H99.2827V27.53ZM118.593 44V12.5H118.493V44H118.593ZM118.543 12.45H92.8477V12.55H118.543V12.45ZM92.7977 12.5V44H92.8977V12.5H92.7977ZM92.8477 44.05H99.2827V43.95H92.8477V44.05ZM99.3327 44V33.65H99.2327V44H99.3327ZM99.2827 33.7H112.108V33.6H99.2827V33.7ZM112.058 33.65V44H112.158V33.65H112.058ZM112.108 44.05H118.543V43.95H112.108V44.05ZM99.2827 18.715H112.108V18.615H99.2827V18.715ZM112.058 18.665V27.53H112.158V18.665H112.058ZM112.108 27.48H99.2827V27.58H112.108V27.48ZM99.3327 27.53V18.665H99.2327V27.53H99.3327ZM147.328 25.145H147.278V25.195H147.328V25.145ZM147.328 12.5H147.378V12.45H147.328V12.5ZM125.323 12.5V12.45H125.273V12.5H125.323ZM125.323 44H125.273V44.05H125.323V44ZM151.288 44V44.05H151.338V44H151.288ZM151.288 25.145H151.338V25.095H151.288V25.145ZM131.758 18.665V18.615H131.708V18.665H131.758ZM141.073 18.665H141.123V18.615H141.073V18.665ZM141.073 25.145V25.195H141.123V25.145H141.073ZM131.758 25.145H131.708V25.195H131.758V25.145ZM131.758 30.635V30.585H131.708V30.635H131.758ZM144.853 30.635H144.903V30.585H144.853V30.635ZM144.853 37.88V37.93H144.903V37.88H144.853ZM131.758 37.88H131.708V37.93H131.758V37.88ZM147.378 25.145V12.5H147.278V25.145H147.378ZM147.328 12.45H125.323V12.55H147.328V12.45ZM125.273 12.5V44H125.373V12.5H125.273ZM125.323 44.05H151.288V43.95H125.323V44.05ZM151.338 44V25.145H151.238V44H151.338ZM151.288 25.095H147.328V25.195H151.288V25.095ZM131.758 18.715H141.073V18.615H131.758V18.715ZM141.023 18.665V25.145H141.123V18.665H141.023ZM141.073 25.095H131.758V25.195H141.073V25.095ZM131.808 25.145V18.665H131.708V25.145H131.808ZM131.758 30.685H144.853V30.585H131.758V30.685ZM144.803 30.635V37.88H144.903V30.635H144.803ZM144.853 37.83H131.758V37.93H144.853V37.83ZM131.808 37.88V30.635H131.708V37.88H131.808ZM172.698 11.91C163.401 11.91 156.223 18.9518 156.223 28.25H156.323C156.323 19.0082 163.455 12.01 172.698 12.01V11.91ZM156.223 28.25C156.223 37.5931 163.401 44.635 172.698 44.635V44.535C163.455 44.535 156.323 37.5369 156.323 28.25H156.223ZM172.698 44.635C181.995 44.635 189.128 37.5929 189.128 28.25H189.028C189.028 37.5371 181.941 44.535 172.698 44.535V44.635ZM189.128 28.25C189.128 18.952 181.995 11.91 172.698 11.91V12.01C181.941 12.01 189.028 19.008 189.028 28.25H189.128ZM172.698 18.13C178.294 18.13 182.503 22.4263 182.503 28.25H182.603C182.603 22.3737 178.352 18.03 172.698 18.03V18.13ZM182.503 28.25C182.503 34.1189 178.294 38.415 172.698 38.415V38.515C178.352 38.515 182.603 34.1711 182.603 28.25H182.503ZM172.698 38.415C167.057 38.415 162.848 34.1187 162.848 28.25H162.748C162.748 34.1713 166.999 38.515 172.698 38.515V38.415ZM162.848 28.25C162.848 22.4264 167.057 18.13 172.698 18.13V18.03C166.999 18.03 162.748 22.3736 162.748 28.25H162.848ZM208.403 28.16L208.36 28.1333L208.343 28.1601L208.361 28.1869L208.403 28.16ZM218.303 12.5L218.345 12.5267L218.393 12.45H218.303V12.5ZM210.608 12.5V12.45H210.579L210.565 12.4742L210.608 12.5ZM204.533 22.58L204.49 22.6059L204.533 22.6766L204.576 22.6058L204.533 22.58ZM198.413 12.5L198.455 12.474L198.441 12.45H198.413V12.5ZM190.763 12.5V12.45H190.671L190.721 12.5269L190.763 12.5ZM200.483 27.71L200.525 27.7366L200.542 27.7097L200.525 27.6831L200.483 27.71ZM190.268 44L190.225 43.9734L190.177 44.05H190.268V44ZM197.918 44V44.05H197.946L197.961 44.0257L197.918 44ZM204.353 33.245L204.395 33.2191L204.352 33.1481L204.31 33.2193L204.353 33.245ZM210.878 44L210.835 44.0259L210.85 44.05H210.878V44ZM218.528 44V44.05H218.619L218.57 43.9731L218.528 44ZM208.445 28.1867L218.345 12.5267L218.26 12.4733L208.36 28.1333L208.445 28.1867ZM218.303 12.45H210.608V12.55H218.303V12.45ZM210.565 12.4742L204.49 22.5542L204.576 22.6058L210.651 12.5258L210.565 12.4742ZM204.575 22.5541L198.455 12.474L198.37 12.5259L204.49 22.6059L204.575 22.5541ZM198.413 12.45H190.763V12.55H198.413V12.45ZM190.721 12.5269L200.441 27.7369L200.525 27.6831L190.805 12.4731L190.721 12.5269ZM200.44 27.6834L190.225 43.9734L190.31 44.0266L200.525 27.7366L200.44 27.6834ZM190.268 44.05H197.918V43.95H190.268V44.05ZM197.961 44.0257L204.396 33.2707L204.31 33.2193L197.875 43.9743L197.961 44.0257ZM204.31 33.2709L210.835 44.0259L210.92 43.9741L204.395 33.2191L204.31 33.2709ZM210.878 44.05H218.528V43.95H210.878V44.05ZM218.57 43.9731L208.445 28.1331L208.361 28.1869L218.486 44.0269L218.57 43.9731Z" fill="#66FFFF"/>
</svg>
