<svg width="14" height="15" viewBox="0 0 14 15" fill="none" xmlns="http://www.w3.org/2000/svg">
<path d="M13.7631 10.751L10.108 7.09589C10.0629 7.05077 10.0629 7.05077 10.0629 7.00564C10.0629 7.00564 10.0629 6.96052 10.108 6.91539L13.7631 3.26027C14.079 2.9444 14.079 2.4029 13.7631 2.08703L11.913 0.236906C11.5971 -0.0789686 11.0556 -0.0789686 10.7397 0.236906L7.08461 3.89202C7.03948 3.93715 6.99436 3.93715 6.90411 3.89202L3.24899 0.236906C2.93312 -0.0789686 2.39162 -0.0789686 2.07575 0.236906L0.225624 2.08703C0.0902498 2.26753 0 2.44803 0 2.67365C0 2.89927 0.0902498 3.1249 0.225624 3.26027L3.88074 6.91539C3.92587 6.96052 3.92587 7.00564 3.92587 7.00564C3.92587 7.00564 3.92587 7.05077 3.88074 7.09589L0.225624 10.751C0.0902498 10.8864 0 11.112 0 11.3376C0 11.5633 0.0902498 11.7438 0.225624 11.9243L2.07575 13.7744C2.21112 13.9097 2.43674 14 2.66237 14C2.88799 14 3.06849 13.9097 3.24899 13.7744L6.90411 10.1193C6.94923 10.0741 6.99436 10.0741 7.08461 10.1193L10.7397 13.7744C11.0556 14.0903 11.5971 14.0903 11.913 13.7744L13.7631 11.9243C14.079 11.6084 14.079 11.0669 13.7631 10.751Z" fill="#ffffff"/>
</svg>
