<svg width="20" height="21" viewBox="0 0 20 21" fill="none" xmlns="http://www.w3.org/2000/svg">
<path d="M10 0.5625C4.51613 0.5625 0 5.13508 0 10.6875C0 16.2399 4.51613 20.8125 10 20.8125C15.4839 20.8125 20 16.2399 20 10.6875C20 5.13508 15.4839 0.5625 10 0.5625ZM10 18.3956C5.80645 18.3956 2.3871 14.9335 2.3871 10.6875C2.3871 6.44153 5.80645 2.97944 10 2.97944C14.1935 2.97944 17.6129 6.44153 17.6129 10.6875C17.6129 14.9335 14.1935 18.3956 10 18.3956Z" fill="#FFF606"/>
<path d="M9.99983 4.02466C6.38693 4.02466 3.41919 7.0295 3.41919 10.6876C3.41919 14.3456 6.38693 17.3505 9.99983 17.3505C13.6127 17.3505 16.5805 14.3456 16.5805 10.6876C16.5805 7.0295 13.6127 4.02466 9.99983 4.02466ZM13.3547 8.92385L9.09661 13.2351C8.96758 13.3005 8.83854 13.3005 8.70951 13.3005C8.58048 13.3005 8.45145 13.2351 8.38693 13.1698L6.645 11.4061C6.45145 11.2101 6.45145 10.8835 6.645 10.6876C6.83854 10.4916 7.16112 10.4916 7.35467 10.6876L8.70951 12.0593L12.5805 8.13998C12.774 7.94401 13.0966 7.94401 13.2902 8.13998C13.5482 8.40127 13.5482 8.72788 13.3547 8.92385Z" fill="#FFF606"/>
</svg>
