<svg width="29" height="24" viewBox="0 0 29 24" fill="none" xmlns="http://www.w3.org/2000/svg">
<path d="M9.13083 0V1.97533L7.72089 2.52871L3.91699 4.02044L4.37895 5.19458L0 8.69053L9.13083 20.1383V24H23.9687V0H9.13083ZM9.13083 18.2111L1.68901 8.8806L4.8409 6.36871L9.13083 17.3089V18.2111ZM9.13083 14.015L5.47609 4.70136L9.13083 3.26736V14.015ZM22.7657 22.797H10.3338V1.20301H22.7657L22.7657 22.797Z" fill="white"/>
<path d="M18.3384 14.1862H19.5415V12.6019H20.8192V11.3981H19.5415V9.8148L17.1271 9.81432H15.924V9.8148H15.9199L15.923 12.9826H14.7624L14.7652 9.8148L13.5621 9.81384L13.5609 11.2387H12.2803V12.4428H13.5597L13.558 14.1857H17.1271V11.0179H18.3384V14.1862Z" fill="white"/>
<path d="M16.5497 17.9148C16.9927 17.9148 17.3518 17.5557 17.3518 17.1128C17.3518 16.6699 16.9927 16.3108 16.5497 16.3108C16.1068 16.3108 15.7477 16.6699 15.7477 17.1128C15.7477 17.5557 16.1068 17.9148 16.5497 17.9148Z" fill="white"/>
<path d="M16.5497 7.68922C16.9927 7.68922 17.3518 7.33015 17.3518 6.88721C17.3518 6.44428 16.9927 6.08521 16.5497 6.08521C16.1068 6.08521 15.7477 6.44428 15.7477 6.88721C15.7477 7.33015 16.1068 7.68922 16.5497 7.68922Z" fill="white"/>
<path d="M26.9807 6.82324L26.1342 5.97675L27.5052 4.61162L26.1342 3.24649L26.9807 2.39999L28.769 4.18837C28.8801 4.30006 28.9424 4.45115 28.9424 4.60864C28.9424 4.76613 28.8801 4.91721 28.769 5.02891L26.9807 6.82324Z" fill="white"/>
<path d="M28.3458 4.0155H20V5.20775H28.3458V4.0155Z" fill="white"/>
</svg>
