<svg width="22" height="25" viewBox="0 0 22 25" fill="none" xmlns="http://www.w3.org/2000/svg">
<path d="M22 15.7966L18.1314 8.27687V0H6.10324V1.69494L4.81861 2.34214L1.89765 3.80995L2.86234 5.72713L0 10.6874L6.10324 14.2116V16.5464H11.6106C11.6081 16.798 11.5984 17.0446 11.5813 17.284C11.5284 18.2672 11.7092 19.2489 12.1088 20.1488C12.336 20.6788 12.615 21.1852 12.9416 21.6605C13.4043 22.329 13.8236 23.0265 14.1969 23.7487L14.5389 24.4227H20.8033L20.1024 20.9596L22 15.7966ZM6.10324 12.8024L1.66807 10.2405L3.51932 7.03375L6.10324 12.1698V12.8024ZM6.10324 9.44916L4.24956 5.76621L3.59503 4.46203L3.53885 4.35213L3.70493 4.26909L5.69294 3.2702L6.10324 3.06261V9.44916ZM11.3956 12.927L11.4445 13.3959L11.4738 13.6816C11.5056 14.0064 11.5349 14.319 11.5568 14.617C11.5739 14.8612 11.5861 15.0981 11.5959 15.3253H7.32438V1.22114H16.9103V15.147C16.9105 15.2256 16.8951 15.3035 16.8651 15.3761C16.8351 15.4488 16.791 15.5148 16.7354 15.5704C16.6798 15.626 16.6138 15.6701 16.5411 15.7001C16.4684 15.7301 16.3906 15.7455 16.3119 15.7453C16.1844 15.7465 16.0599 15.7061 15.9573 15.6303C15.8546 15.5546 15.7794 15.4475 15.7429 15.3253C15.7319 15.3012 15.7245 15.2757 15.7209 15.2496L15.611 14.617L15.401 13.3959L15.2276 12.4019C15.1423 11.9076 14.8684 11.4657 14.4637 11.1695C14.0589 10.8732 13.555 10.7457 13.058 10.8138C12.5611 10.8819 12.11 11.1403 11.7999 11.5345C11.4898 11.9287 11.3448 12.428 11.3956 12.927ZM15.2837 23.1943C14.8884 22.4238 14.4421 21.6805 13.9478 20.9694C13.6681 20.5615 13.4292 20.1272 13.2347 19.6725C12.9514 19.0328 12.8002 18.3425 12.7902 17.643C12.7902 17.5502 12.7926 17.4574 12.8 17.3646C12.8171 17.0984 12.8293 16.8273 12.8341 16.5464C12.8415 16.1556 12.8366 15.7502 12.8195 15.3253C12.8097 15.0957 12.7975 14.8612 12.7804 14.617C12.756 14.2775 12.7242 13.9258 12.6876 13.5571L12.6705 13.3959L12.6119 12.8048C12.5925 12.6205 12.6456 12.4358 12.7599 12.2899C12.8742 12.1439 13.0407 12.0481 13.2244 12.0227C13.408 11.9974 13.5943 12.0444 13.7439 12.1539C13.8935 12.2634 13.9946 12.4267 14.026 12.6095L14.1627 13.3959L14.3728 14.617L14.4973 15.3253L14.5193 15.4571C14.5737 15.7716 14.7098 16.0662 14.914 16.3114C15.1182 16.5567 15.3833 16.7439 15.6827 16.8542C15.9821 16.9646 16.3053 16.9942 16.6198 16.9402C16.9343 16.8862 17.229 16.7504 17.4745 16.5464C17.6799 16.3756 17.8453 16.1617 17.9588 15.9199C18.0724 15.678 18.1313 15.4142 18.1314 15.147V10.9463L20.669 15.8797L18.8373 20.8643L19.3111 23.2016L15.2837 23.1943Z" fill="white"/>
<path d="M11.5126 6.25391V8.51301H10.9624L10.9599 6.2583L9.73881 6.25977L9.74003 7.38663H8.94824V8.60777H9.74149L9.74271 9.73415H12.7338V7.47504H13.2728V9.73561H14.4939V8.60777H15.2864V7.38663H14.4939V6.25391H11.5126Z" fill="white"/>
</svg>
