<svg width="24" height="24" viewBox="0 0 24 24" fill="none" xmlns="http://www.w3.org/2000/svg">
<path d="M1.99206 21.9047C1.89292 21.9042 1.79616 21.8743 1.71399 21.8189C1.63181 21.7634 1.56791 21.6848 1.53034 21.5931C1.49278 21.5013 1.48323 21.4005 1.5029 21.3033C1.52257 21.2062 1.57058 21.117 1.64087 21.0471C1.71117 20.9772 1.8006 20.9296 1.89787 20.9105C1.99515 20.8913 2.09591 20.9014 2.18746 20.9395C2.279 20.9776 2.35722 21.0419 2.41224 21.1244C2.46727 21.2068 2.49663 21.3038 2.49663 21.4029C2.49664 21.469 2.48358 21.5345 2.4582 21.5956C2.43281 21.6567 2.3956 21.7121 2.34871 21.7588C2.30182 21.8054 2.24617 21.8423 2.18496 21.8674C2.12375 21.8924 2.05819 21.9051 1.99206 21.9047Z" fill="#110101"/>
<path d="M4.64016 24H0V22.7988H3.43896V16.6426H0V15.4414H4.64016V24Z" fill="#110101"/>
<path d="M11.7654 22.7741H5.43823V16.6805L5.50932 16.5477C5.89937 15.8636 6.48509 15.3117 7.1912 14.963C7.8539 14.6445 8.57651 14.4698 9.31152 14.4506C10.0465 14.4313 10.7773 14.5678 11.4558 14.8511C11.8926 15.0296 12.3189 15.2327 12.7327 15.4594C13.0732 15.6379 13.3946 15.8066 13.7268 15.9471C13.8667 15.9983 14.01 16.0399 14.1557 16.0715C14.658 16.1953 15.3459 16.365 15.6291 17.0118C15.7912 17.4263 15.8531 17.8732 15.8098 18.3161L18.8303 18.2714L20.399 16.5344C20.6903 16.2118 21.0977 16.0181 21.5318 15.9956C21.9658 15.9731 22.3911 16.1237 22.7142 16.4144C23.0373 16.7051 23.232 17.1121 23.2554 17.5461C23.2788 17.9801 23.129 18.4056 22.839 18.7294L20.4752 21.3669L11.7654 22.7741ZM6.6395 21.5728H11.669L19.864 20.2489L21.9444 17.9275C21.9845 17.8828 22.015 17.8302 22.034 17.7732C22.053 17.7162 22.0601 17.6559 22.0549 17.596C22.0497 17.5361 22.0323 17.478 22.0037 17.4251C21.9751 17.3722 21.936 17.3257 21.8888 17.2885C21.8011 17.22 21.6906 17.1871 21.5797 17.1965C21.4687 17.206 21.3654 17.257 21.2905 17.3395L19.3711 19.4648L11.9336 19.5746L11.916 18.3736L14.6059 18.3338C14.6427 18.0516 14.6164 17.7648 14.529 17.494C14.4832 17.3896 14.083 17.2908 13.8681 17.2378C13.6606 17.1923 13.457 17.1308 13.2592 17.0536C12.8808 16.8936 12.5218 16.7053 12.1748 16.5232C11.8008 16.3177 11.4157 16.1333 11.021 15.9709C10.5012 15.7494 9.9405 15.6401 9.37554 15.6503C8.81058 15.6606 8.25415 15.79 7.74269 16.0302C7.29816 16.2508 6.91815 16.5825 6.6395 16.9932V21.5728Z" fill="#110101"/>
<path d="M24.0002 2.6808V1.404L20.1746 0L12.785 3.7992H6.4082V12.7392H21.0482V10.2072C21.2474 10.2144 21.4442 10.2216 21.6362 10.236C21.7562 10.2432 21.8762 10.248 21.9962 10.248C22.6796 10.2428 23.3572 10.1219 24.0002 9.8904V8.6064C23.9954 8.6088 23.9882 8.6112 23.9834 8.6136C23.2716 8.93243 22.4944 9.07801 21.7154 9.0384C21.497 9.024 21.2762 9.0144 21.0482 9.0072C20.6642 8.9976 20.2682 9 19.8482 9.0144C19.2698 9.03359 18.6506 9.0792 17.9738 9.1488L17.2346 9.2256C17.0535 9.24457 16.8721 9.19238 16.7287 9.08007C16.5853 8.96775 16.4913 8.8041 16.4663 8.62369C16.4414 8.44328 16.4876 8.26025 16.5951 8.11326C16.7027 7.96628 16.8631 7.86686 17.0426 7.836L19.841 7.3512C19.8423 7.35136 19.8436 7.35123 19.8449 7.35081C19.8461 7.3504 19.8473 7.34971 19.8482 7.3488C20.0938 7.30672 20.3277 7.2131 20.5346 7.07411C20.7414 6.93512 20.9164 6.7539 21.0482 6.54239C21.2183 6.27175 21.3129 5.96051 21.3221 5.64098C21.3312 5.32145 21.2547 5.00529 21.1004 4.72534C20.9461 4.44538 20.7196 4.21185 20.4446 4.04898C20.1695 3.88612 19.8559 3.79987 19.5362 3.79919H15.4082L20.2562 1.308L24.0002 2.6808ZM19.5362 4.9992C19.6466 4.99805 19.755 5.02889 19.8482 5.088C19.9327 5.14131 20.0024 5.21517 20.0506 5.30267C20.0989 5.39017 20.1242 5.48848 20.1242 5.58841C20.1242 5.68834 20.0989 5.78664 20.0506 5.87414C20.0024 5.96165 19.9327 6.0355 19.8482 6.08881C19.7837 6.12889 19.7119 6.15581 19.637 6.16801L16.8386 6.6528C16.3692 6.73365 15.9472 6.98776 15.6561 7.36486C15.3651 7.74197 15.2261 8.21458 15.2669 8.68919C15.3076 9.16381 15.525 9.60584 15.8761 9.92784C16.2271 10.2498 16.6862 10.4283 17.1626 10.428C17.2267 10.4283 17.2908 10.4251 17.3546 10.4184C17.3546 10.4184 19.3082 10.236 19.8482 10.2168V11.5392H7.6082V4.9992H19.5362Z" fill="#110101"/>
<path d="M13.2587 7.78328V7.18302H12.4682V6.54546H11.8674V7.18302H11.0774L11.0773 8.38786V8.98813H11.0774V8.99005L12.6581 8.98861V9.56776L11.0774 9.56632L11.0769 10.1667L11.788 10.1673V10.8063H12.3887V10.1679L13.2585 10.1686V8.38786H11.6778V7.78328H13.2587Z" fill="#110101"/>
</svg>
