<svg width="28" height="24" viewBox="0 0 28 24" fill="none" xmlns="http://www.w3.org/2000/svg">
<path d="M20.3617 21.2173L18.5733 19.4289C18.4623 19.3172 18.4 19.1661 18.4 19.0086C18.4 18.8511 18.4623 18.7001 18.5733 18.5884L20.3617 16.8L21.2022 17.6405L19.8371 19.0057L21.2022 20.3708L20.3617 21.2173Z" fill="white"/>
<path d="M27.3424 18.4H18.9966V19.5922H27.3424V18.4Z" fill="white"/>
<path d="M9.13083 0V1.97533L7.72089 2.52871L3.91699 4.02044L4.37895 5.19458L0 8.69053L9.13083 20.1383V24H23.9687V0H9.13083ZM9.13083 18.2111L1.68901 8.8806L4.8409 6.36871L9.13083 17.3089V18.2111ZM9.13083 14.015L5.47609 4.70136L9.13083 3.26736V14.015ZM22.7657 22.797H10.3338V1.20301H22.7657L22.7657 22.797Z" fill="white"/>
<path d="M18.3384 14.1862H19.5415V12.6019H20.8193V11.3981H19.5415V9.8148L17.1271 9.81432H15.924V9.8148H15.9199L15.923 12.9826H14.7624L14.7653 9.8148L13.5621 9.81384L13.5609 11.2387H12.2803V12.4428H13.5597L13.5581 14.1857H17.1271V11.0179H18.3384V14.1862Z" fill="white"/>
<path d="M16.5497 17.9148C16.9927 17.9148 17.3518 17.5557 17.3518 17.1128C17.3518 16.6699 16.9927 16.3108 16.5497 16.3108C16.1068 16.3108 15.7477 16.6699 15.7477 17.1128C15.7477 17.5557 16.1068 17.9148 16.5497 17.9148Z" fill="white"/>
<path d="M16.5497 7.68922C16.9927 7.68922 17.3518 7.33015 17.3518 6.88721C17.3518 6.44428 16.9927 6.08521 16.5497 6.08521C16.1068 6.08521 15.7477 6.44428 15.7477 6.88721C15.7477 7.33015 16.1068 7.68922 16.5497 7.68922Z" fill="white"/>
</svg>
