<svg width="25" height="26" viewBox="0 0 25 26" fill="none" xmlns="http://www.w3.org/2000/svg">
<path d="M18.9599 8.57416L20.3286 5.91735C20.7311 5.19277 19.926 4.38768 19.2014 4.79022L16.4641 6.07837L17.1082 7.93008L18.9599 8.57416Z" fill="black"/>
<path d="M6.07845 8.57416L7.93017 7.93008L8.57424 6.07837L5.91744 4.79022C5.19285 4.38768 4.38776 5.19277 4.79031 5.91735L6.07845 8.57416Z" fill="black"/>
<path d="M18.9599 16.4641L17.1082 17.1082L16.4641 18.9599L19.1209 20.3286C19.8455 20.7311 20.6506 19.926 20.2481 19.2014L18.9599 16.4641Z" fill="black"/>
<path d="M6.07847 16.4641L4.70981 19.1209C4.30726 19.8455 5.11235 20.6506 5.83694 20.248L8.49374 18.8794L7.84967 17.0277L6.07847 16.4641Z" fill="black"/>
<path d="M24.4345 11.7141L18.3964 9.70136L17.7523 9.45983L16.0616 8.89627L15.7395 7.93016L15.498 7.28608L15.2565 6.64201L13.3243 0.603819C13.0827 -0.201273 11.9556 -0.201273 11.7141 0.603819L9.70136 6.64201L9.45983 7.28608L9.29881 7.93016L8.97678 8.97678L7.28608 9.54034L6.64201 9.78187L0.603819 11.7141C-0.201273 11.9556 -0.201273 13.0827 0.603819 13.3243L6.64201 15.337L7.28608 15.5785L7.93016 15.8201L8.97678 16.1421L9.29881 17.1887L9.54034 17.8328L9.78187 18.4769L11.7946 24.5151C12.0361 25.3201 13.1633 25.3201 13.4048 24.5151L15.4175 18.4769L15.659 17.8328L15.9006 17.1887L16.2226 16.1421L17.2692 15.8201L17.9133 15.5785L18.5574 15.337L24.5956 13.3243C25.1591 13.0827 25.1591 11.9556 24.4345 11.7141ZM12.5192 15.015C11.1505 15.015 10.0234 13.8878 10.0234 12.5192C10.0234 11.1505 11.1505 10.0234 12.5192 10.0234C13.8878 10.0234 15.015 11.1505 15.015 12.5192C15.015 13.8878 13.8878 15.015 12.5192 15.015Z" fill="black"/>
</svg>
