<svg width="22" height="22" viewBox="0 0 22 22" fill="none" xmlns="http://www.w3.org/2000/svg">
<path d="M18.8782 4.5892L18.8804 0H2.904C2.15666 0.00148101 1.43851 0.290359 0.898319 0.806801C0.358123 1.32324 0.037264 2.02768 0.0022 2.7742L0 11.3388H1.2232V5.2756C1.7137 5.6256 2.30143 5.8133 2.904 5.8124H20.7768V20.3126H11.0616V21.5358H22V4.5892L18.8782 4.5892ZM17.655 4.5892H2.904C2.45764 4.5892 2.02956 4.41188 1.71394 4.09626C1.39832 3.78064 1.221 3.35256 1.221 2.9062C1.221 2.45984 1.39832 2.03176 1.71394 1.71614C2.02956 1.40052 2.45764 1.2232 2.904 1.2232H17.655V4.5892Z" fill="#66F6FF"/>
<path d="M18.2539 13.8181C18.6981 13.8181 19.0583 13.458 19.0583 13.0137C19.0583 12.5695 18.6981 12.2094 18.2539 12.2094C17.8097 12.2094 17.4495 12.5695 17.4495 13.0137C17.4495 13.458 17.8097 13.8181 18.2539 13.8181Z" fill="#66F6FF"/>
<path d="M5.80269 22.0004C4.65506 22.0004 3.53321 21.6601 2.57899 21.0225C1.62477 20.3849 0.881052 19.4787 0.441875 18.4184C0.00269724 17.3581 -0.112212 16.1915 0.111679 15.0659C0.33557 13.9403 0.888205 12.9064 1.6997 12.0949C2.51119 11.2834 3.5451 10.7308 4.67067 10.5069C5.79625 10.283 6.96294 10.3979 8.02321 10.8371C9.08348 11.2763 9.9897 12.02 10.6273 12.9742C11.2649 13.9284 11.6052 15.0503 11.6052 16.1979C11.6034 17.7363 10.9915 19.2111 9.90373 20.2989C8.81593 21.3867 7.34106 21.9986 5.80269 22.0004ZM5.80269 11.4954C4.87262 11.4954 3.96344 11.7712 3.19012 12.2879C2.41679 12.8046 1.81406 13.539 1.45814 14.3983C1.10222 15.2576 1.0091 16.2031 1.19054 17.1153C1.37199 18.0275 1.81986 18.8654 2.47752 19.5231C3.13517 20.1807 3.97308 20.6286 4.88527 20.81C5.79747 20.9915 6.74299 20.8984 7.60226 20.5424C8.46152 20.1865 9.19595 19.5838 9.71267 18.8105C10.2294 18.0371 10.5052 17.128 10.5052 16.1979C10.5038 14.9511 10.0079 13.7559 9.12629 12.8743C8.24471 11.9927 7.04943 11.4968 5.80269 11.4954Z" fill="#66F6FF"/>
<path d="M5.25486 13.3431V14.0568H4.2345V16.7425H6.2695V17.2382L4.23846 17.2404L4.23956 18.3404L5.25486 18.3393V19.0525H6.35486V18.338L7.3695 18.3369V15.6425H5.3345V15.1568H7.3706V14.0568H6.35486V13.3431H5.25486Z" fill="#66F6FF"/>
</svg>
