<svg width="32" height="28" viewBox="0 0 32 28" fill="none" xmlns="http://www.w3.org/2000/svg">
<path d="M15.5 10.1C12 10.1 9.20001 12.9 9.20001 16.4C9.20001 19.9 12 22.7 15.5 22.7C19 22.7 21.8 19.9 21.8 16.4C21.8 12.9 19 10.1 15.5 10.1Z" fill="black"/>
<path d="M27.2 5.4H23.8C22.9 5.4 22.1 4.9 21.7 4L21 2.3C20.5 0.9 19.1 0 17.6 0H13.4C11.9 0 10.5 0.9 9.9 2.3L9.2 4C8.9 4.8 8.1 5.4 7.2 5.4H3.8C1.7 5.4 0 7.1 0 9.2V24.1C0 26.2 1.7 27.9 3.8 27.9H27.3C29.4 27.9 31.1 26.2 31.1 24.1V9.1C31 7.1 29.3 5.4 27.2 5.4ZM15.5 24.1C11.2 24.1 7.7 20.6 7.7 16.3C7.7 12 11.2 8.5 15.5 8.5C19.8 8.5 23.3 12 23.3 16.3C23.3 20.6 19.8 24.1 15.5 24.1Z" fill="black"/>
</svg>
