<svg width="12" height="12" viewBox="0 0 12 12" fill="none" xmlns="http://www.w3.org/2000/svg">
<path d="M9.05754 4.0961L9.71139 2.82687C9.9037 2.48071 9.51908 2.0961 9.17293 2.28841L7.86523 2.90379L8.17293 3.78841L9.05754 4.0961Z" fill="black"/>
<path d="M2.90396 4.0961L3.78857 3.78841L4.09627 2.90379L2.82704 2.28841C2.48088 2.0961 2.09627 2.48071 2.28857 2.82687L2.90396 4.0961Z" fill="black"/>
<path d="M9.05754 7.86537L8.17293 8.17306L7.86523 9.05768L9.13447 9.71153C9.48062 9.90383 9.86523 9.51922 9.67293 9.17306L9.05754 7.86537Z" fill="black"/>
<path d="M2.90385 7.86537L2.25 9.1346C2.05769 9.48076 2.44231 9.86537 2.78846 9.67306L4.05769 9.01922L3.75 8.1346L2.90385 7.86537Z" fill="black"/>
<path d="M11.6731 5.59615L8.78846 4.63462L8.48077 4.51923L7.67308 4.25L7.51923 3.78846L7.40385 3.48077L7.28846 3.17308L6.36539 0.288462C6.25 -0.0961538 5.71154 -0.0961538 5.59615 0.288462L4.63462 3.17308L4.51923 3.48077L4.44231 3.78846L4.28846 4.28846L3.48077 4.55769L3.17308 4.67308L0.288462 5.59615C-0.0961539 5.71154 -0.0961539 6.25 0.288462 6.36538L3.17308 7.32692L3.48077 7.44231L3.78846 7.55769L4.28846 7.71154L4.44231 8.21154L4.55769 8.51923L4.67308 8.82692L5.63462 11.7115C5.75 12.0962 6.28846 12.0962 6.40385 11.7115L7.36539 8.82692L7.48077 8.51923L7.59616 8.21154L7.75 7.71154L8.25 7.55769L8.55769 7.44231L8.86539 7.32692L11.75 6.36538C12.0192 6.25 12.0192 5.71154 11.6731 5.59615ZM5.98077 7.17308C5.32692 7.17308 4.78846 6.63462 4.78846 5.98077C4.78846 5.32692 5.32692 4.78846 5.98077 4.78846C6.63462 4.78846 7.17308 5.32692 7.17308 5.98077C7.17308 6.63462 6.63462 7.17308 5.98077 7.17308Z" fill="black"/>
</svg>
