<svg width="22" height="22" viewBox="0 0 22 22" fill="none" xmlns="http://www.w3.org/2000/svg">
<path d="M17.1809 21.992C17.1172 22.0027 17.0521 22.0027 16.9884 21.992H13.0575C12.967 21.9925 12.8773 21.9752 12.7936 21.941C12.7099 21.9068 12.6337 21.8564 12.5695 21.7927L0.199309 9.42252C0.135615 9.3583 0.0852239 9.28215 0.051024 9.19842C0.0168241 9.11469 -0.000511425 9.02503 1.14866e-05 8.93458V4.81118C-0.000511425 4.72074 0.0168241 4.63108 0.051024 4.54735C0.0852239 4.46362 0.135615 4.38746 0.199309 4.32324L4.32271 0.199843C4.45147 0.0718446 4.62565 0 4.80721 0C4.98877 0 5.16295 0.0718446 5.29171 0.199843L8.72788 3.63601C8.85588 3.76477 8.92772 3.93895 8.92772 4.12051C8.92772 4.30207 8.85588 4.47625 8.72788 4.60501L6.18511 7.1409V7.94497L14.0127 15.8069H14.8168L17.3664 13.2573C17.4952 13.1293 17.6693 13.0574 17.8509 13.0574C18.0325 13.0574 18.2066 13.1293 18.3354 13.2573L21.7716 16.6935C21.8392 16.7577 21.893 16.8349 21.9297 16.9206C21.9665 17.0062 21.9855 17.0985 21.9855 17.1917C21.9855 17.2849 21.9665 17.3772 21.9297 17.4628C21.893 17.5485 21.8392 17.6257 21.7716 17.6899L17.6482 21.8133C17.5204 21.9295 17.3535 21.9933 17.1809 21.992ZM13.3186 20.6176H16.9266L20.3627 17.1814L17.8681 14.7005L15.6071 16.9615C15.5446 17.0289 15.4692 17.0831 15.3854 17.1209C15.3016 17.1587 15.2111 17.1792 15.1192 17.1814H13.7447C13.6542 17.1819 13.5646 17.1646 13.4809 17.1304C13.3971 17.0962 13.321 17.0458 13.2567 16.9821L5.00994 8.73528C4.94625 8.67107 4.89586 8.59491 4.86166 8.51118C4.82746 8.42745 4.81012 8.33779 4.81065 8.24735V6.87288C4.81012 6.78244 4.82746 6.69278 4.86166 6.60905C4.89586 6.52532 4.94625 6.44916 5.00994 6.38495L7.26407 4.12395L4.81065 1.64303L1.37448 5.0792V8.6322L13.3186 20.6176Z" fill="black"/>
<path d="M16.2793 15.305L15.3074 16.2769L18.743 19.7126L19.7149 18.7407L16.2793 15.305Z" fill="black"/>
<path d="M3.2219 2.24757L2.25 3.21947L5.68565 6.65512L6.65754 5.68322L3.2219 2.24757Z" fill="black"/>
<path d="M14.432 12.3707C14.2497 12.3707 14.0749 12.2983 13.946 12.1694C13.8172 12.0405 13.7448 11.8657 13.7448 11.6835V9.62177H10.9958C10.8136 9.62177 10.6388 9.54937 10.5099 9.42049C10.381 9.29161 10.3086 9.11681 10.3086 8.93454V0.687737C10.3086 0.505472 10.381 0.330671 10.5099 0.20179C10.6388 0.0729083 10.8136 0.00050354 10.9958 0.00050354L21.3043 0.00050354C21.4866 0.00050354 21.6614 0.0729083 21.7903 0.20179C21.9192 0.330671 21.9916 0.505472 21.9916 0.687737V8.93454C21.9916 9.11681 21.9192 9.29161 21.7903 9.42049C21.6614 9.54937 21.4866 9.62177 21.3043 9.62177H17.4627L14.9131 12.1714C14.7851 12.2984 14.6123 12.37 14.432 12.3707ZM11.6831 8.24731H14.432C14.6143 8.24731 14.7891 8.31971 14.9179 8.44859C15.0468 8.57748 15.1192 8.75228 15.1192 8.93454V10.0272L16.693 8.45348C16.7566 8.38854 16.8325 8.33688 16.9163 8.30149C17.0001 8.2661 17.09 8.24769 17.1809 8.24731H20.6171V1.37497H11.6831V8.24731Z" fill="black"/>
<path d="M19.2425 2.7495H13.0574V4.12396H19.2425V2.7495Z" fill="black"/>
<path d="M19.2425 5.49844H13.0574V6.87291H19.2425V5.49844Z" fill="black"/>
</svg>
