<svg width="18" height="32" viewBox="0 0 18 32" fill="none" xmlns="http://www.w3.org/2000/svg">
<path d="M17 8.7C16.6 8.7 16.2 9 16.2 9.5V17.2C16.2 21.2 12.9 24.5 8.9 24.5C4.9 24.5 1.6 21.2 1.6 17.2V9.5C1.6 9.1 1.3 8.7 0.8 8.7C0.4 8.7 0 9 0 9.5V17.2C0 21.8 3.6 25.6 8.1 26V29.5H4.3C3.9 29.5 3.5 29.8 3.5 30.3C3.5 30.7 3.8 31.1 4.3 31.1H13.4C13.8 31.1 14.2 30.8 14.2 30.3C14.2 29.9 13.9 29.5 13.4 29.5H9.6V26C14.1 25.6 17.7 21.8 17.7 17.2V9.5C17.7 9.1 17.4 8.7 17 8.7Z" fill="black"/>
<path d="M11.4 0.6V5.2C11.4 5.6 11.1 6 10.6 6C10.2 6 9.80001 5.7 9.80001 5.2V0.1C9.50001 2.23517e-08 9.10001 0 8.80001 0C8.50001 0 8.10001 2.23517e-08 7.80001 0.1V5.2C7.80001 5.6 7.50001 6 7.00001 6C6.60001 6 6.20001 5.7 6.20001 5.2V0.6C4.50001 1.5 3.20001 3.5 3.20001 5.7V11.9H14.7V5.7C14.6 3.5 13.3 1.5 11.4 0.6Z" fill="black"/>
<path d="M3.20001 17.2C3.20001 20.4 5.80001 22.9 8.90001 22.9C12.1 22.9 14.6 20.3 14.6 17.2V13.5H3.20001V17.2Z" fill="black"/>
</svg>
