<svg width="9" height="10" viewBox="0 0 9 10" fill="none" xmlns="http://www.w3.org/2000/svg">
<path d="M7.20257 6.78457V3.24759C7.97428 3.11897 8.58521 2.44373 8.58521 1.63987C8.58521 0.73955 7.84566 0 6.94534 0C6.04502 0 5.30547 0.73955 5.30547 1.63987C5.30547 2.44373 5.9164 3.11897 6.6881 3.24759V6.75241C6.30225 6.81672 5.98071 6.97749 5.72347 7.26688L3.02251 5.88424C3.18328 5.62701 3.27974 5.33762 3.27974 5.01608C3.27974 4.11576 2.54019 3.37621 1.63987 3.37621C0.73955 3.37621 0 4.11576 0 5.01608C0 5.9164 0.73955 6.65595 1.63987 6.65595C2.02572 6.65595 2.37942 6.52733 2.66881 6.2701L5.49839 7.68489C5.40193 7.87781 5.33762 8.13505 5.33762 8.36013C5.33762 9.26045 6.07717 10 6.97749 10C7.87781 10 8.61736 9.26045 8.61736 8.36013C8.58521 7.55627 7.97428 6.88103 7.20257 6.78457Z" fill="black"/>
</svg>
