<svg width="20" height="21" viewBox="0 0 20 21" fill="none" xmlns="http://www.w3.org/2000/svg">
<path d="M16.6887 6.24172L10.7285 0.347682C10.2649 -0.115894 9.53643 -0.115894 9.07285 0.347682L3.17881 6.24172C2.84769 6.57285 2.78146 7.03642 2.91391 7.5C3.11259 7.96358 3.50994 8.22848 3.97352 8.22848H5.29802C5.36425 8.22848 5.43047 8.2947 5.43047 8.36093V15.5795C5.43047 16.2417 5.96027 16.7053 6.5563 16.7053H13.245C13.9073 16.7053 14.3709 16.1755 14.3709 15.5795V8.36093C14.3709 8.2947 14.4371 8.22848 14.5033 8.22848H15.8278C16.2914 8.22848 16.6887 7.96358 16.8874 7.5C17.0861 7.10265 17.0199 6.57285 16.6887 6.24172Z" fill="#FFF606"/>
<path d="M19.4702 16.5066C19.2053 16.5066 19.0066 16.7053 19.0066 16.9702V19.3543C19.0066 19.4205 18.9404 19.4867 18.8742 19.4867H1.0596C0.993377 19.4867 0.927152 19.4205 0.927152 19.3543V16.9702C0.927152 16.7053 0.728477 16.5066 0.463576 16.5066C0.198676 16.5066 0 16.7053 0 16.9702V19.3543C0 20.0165 0.529801 20.4801 1.12583 20.4801H18.8742C19.5364 20.4801 20 19.9503 20 19.3543V16.9702C19.9338 16.7715 19.7351 16.5066 19.4702 16.5066Z" fill="#FFF606"/>
</svg>
